<?xml version="1.0" encoding="utf-8"?>
<!-- Generator: Adobe Illustrator 19.1.0, SVG Export Plug-In . SVG Version: 6.00 Build 0)  -->
<svg version="1.1" id="Layer_1" xmlns="http://www.w3.org/2000/svg" xmlns:xlink="http://www.w3.org/1999/xlink" x="0px" y="0px"
	 viewBox="0 0 664 136.4" style="enable-background:new 0 0 664 136.4;" xml:space="preserve">
<style type="text/css">
	.ad0{fill:#4CB748;}
	.ad1{fill:#231F20;}
</style>
<path class="ad0" d="M53.6,62.2h3.9c0,0,1.1-5.4,1.1-7.9c0-7.4-4.3-12.1-14.5-12.1c-12.4,0-23.8,7.6-23.8,7.6L16.4,38
	c0,0,13.5-8.3,30.4-8.3c14.8,0,27.1,6.3,27.1,22.8c0,9.3-7.2,33.4-7.2,40.3c0,5.7,3.3,6.9,7.2,6.9c2.2,0,3.6-0.3,3.6-0.3l-2.2,11.8
	c0,0-2.8,0.3-7.2,0.3c-9,0-16.2-3.6-16.4-14.5h-0.3c0.2,0-10.2,16.1-28.2,16.1C10.6,113.1,0,106.2,0,92.9C0,67.9,32,62.2,53.6,62.2z
	 M27.7,101.3c12.9,0,24.1-14.3,27.1-26l0.8-3.1h-4.1c-11.2,0-36.2,1.6-36.2,18.3C15.3,96.6,19.1,101.3,27.7,101.3z"/>
<path class="ad0" d="M86.5,88.5l15-76.7H88L90.4,0h28.5l-16.7,87.1c-0.5,1.9-0.8,4.1-0.8,5.4c0,5.8,3.2,6.6,7.2,6.6
	c2.4,0,3.8-0.3,3.8-0.3l-2.5,12.6c0,0-3.2,0.3-6.3,0.3c-7.7,0-18-1.9-18-15.9C85.7,93.7,86,91.2,86.5,88.5z"/>
<path class="ad0" d="M127.2,80.5l7.2-37.2h-13.4l2.4-11.8h13.7l4.3-21.9h14.8L152,31.5h19.2l-2.4,11.8h-19.2l-7.1,37.2
	c-0.5,2.2-0.6,4.6-0.6,6.1c0,10.9,7.2,12.6,13.2,12.6c2.5,0,4.4-0.3,4.4-0.3l-2.5,12.6c0,0-2.5,0.3-5,0.3
	c-12.3,0-25.7-4.4-25.7-23.3C126.3,86.2,126.6,83.5,127.2,80.5z"/>
<path class="ad0" d="M160.7,121.6h95.2v14.8h-95.2V121.6z"/>
<path class="ad1" d="M292.6,29.6c18.1,0,24.6,13.4,24.6,13.4h0.3c0,0-0.5-2.5-0.5-6V11.8h-13.2V0h28.5v95.9c0,2.4,1.3,3.5,3.5,3.5h8
	v11.8h-15.9c-7.1,0-9.9-3.5-9.9-8.7v-1.1c0-2.7,0.5-4.3,0.5-4.3h-0.3c0,0-6.5,15.9-26.9,15.9c-21.4,0-34.8-17-34.8-41.7
	C256.4,46,271.2,29.6,292.6,29.6z M294.5,99.9c11.8,0,23-8.5,23-28.4c0-14.6-7.4-28.5-22.5-28.5c-12.8,0-23,10.2-23,28.4
	C272,88.7,281.3,99.9,294.5,99.9z"/>
<path class="ad1" d="M347.7,99.4h12V46.8c0-2.4-1.3-3.5-3.5-3.5h-9.9V31.5h18c6.9,0,10.2,2.8,10.2,9.3v5c0,3.2-0.3,5.5-0.3,5.5h0.3
	c3.6-11.7,12.9-20.8,25.2-20.8c2,0,3.9,0.3,3.9,0.3V46c0,0-1.9-0.5-4.4-0.5c-17,0-24.3,17.2-24.3,32.8v21.1h11.8v11.8h-39.1V99.4z"
	/>
<path class="ad1" d="M409,99.4h12.4V43.3h-13.2V31.5h28.5v67.9h12.6v11.8H409V99.4z M421.1,0h16.1v15.6h-16.1V0z"/>
<path class="ad1" d="M442.5,31.5h35.8v11.8h-10.2l16.9,46.5c1.3,3.5,1.7,7.4,1.7,7.4h0.5c0,0,0.5-3.9,1.7-7.4l17-46.5h-10.2V31.5
	h35.6v11.8h-9.9l-25.8,67.9h-17.2l-25.7-67.9h-10.1V31.5z"/>
<path class="ad1" d="M567,29.6c22.7,0,34.5,16.7,34.5,37.3c0,2-0.5,5.8-0.5,5.8h-58.3c0.9,17.6,13.4,27.1,27.6,27.1
	c13.9,0,23.8-9,23.8-9l6.3,11.2c0,0-12,11-31,11c-25.1,0-42.2-18.1-42.2-41.7C527.1,46,544.3,29.6,567,29.6z M585.7,63
	c-0.5-14-9-21.3-19.1-21.3c-11.7,0-21.1,7.9-23.3,21.3H585.7z"/>
<path class="ad1" d="M608.1,99.4h12V46.8c0-2.4-1.3-3.5-3.5-3.5h-9.9V31.5h18c6.9,0,10.2,2.8,10.2,9.3v5c0,3.2-0.3,5.5-0.3,5.5h0.3
	c3.6-11.7,12.9-20.8,25.2-20.8c2,0,3.9,0.3,3.9,0.3V46c0,0-1.9-0.5-4.4-0.5c-17,0-24.3,17.2-24.3,32.8v21.1h11.8v11.8h-39.1V99.4z"
	/>
</svg>
