<svg version="1.1" id="Layer_1" xmlns="http://www.w3.org/2000/svg" xmlns:xlink="http://www.w3.org/1999/xlink" x="0px" y="0px"
	 viewBox="0 0 113.1 28.5" style="enable-background:new 0 0 113.1 28.5;" xml:space="preserve">
<style type="text/css">
	.st0{fill:#00AF41;}
	.st1{opacity:0.5;}
	.st2{fill:#A7A9AC;}
	.st3{fill:#58595B;}
</style>
<g>
	<g>
		<path class="st0" d="M72.3,22.6c-0.7,0-1.3-0.1-1.8-0.4s-1-0.6-1.4-1.1c-0.4-0.5-0.7-1-0.9-1.6c-0.2-0.6-0.3-1.2-0.3-1.8
			c0-0.7,0.1-1.3,0.3-1.9c0.2-0.6,0.5-1.1,0.9-1.6s0.8-0.8,1.4-1.1s1.1-0.4,1.7-0.4c0.4,0,0.8,0.1,1.2,0.2c0.4,0.1,0.7,0.3,1,0.5
			s0.6,0.4,0.9,0.7s0.5,0.5,0.7,0.9V9.2h0.9v12c0,0.3,0.1,0.5,0.4,0.5v0.8c-0.1,0-0.1,0-0.2,0c0,0-0.1,0-0.1,0
			c-0.2,0-0.4-0.1-0.6-0.3c-0.2-0.2-0.3-0.4-0.3-0.6v-1.1c-0.4,0.6-0.9,1.1-1.5,1.5C73.7,22.4,73,22.6,72.3,22.6z M72.4,21.8
			c0.3,0,0.7-0.1,1.1-0.2c0.4-0.1,0.7-0.3,1-0.6c0.3-0.2,0.6-0.5,0.8-0.8s0.4-0.6,0.4-1v-3.1c-0.1-0.3-0.3-0.7-0.6-1
			c-0.2-0.3-0.5-0.6-0.8-0.8c-0.3-0.2-0.7-0.4-1-0.5s-0.7-0.2-1.1-0.2c-0.5,0-1,0.1-1.5,0.4c-0.4,0.2-0.8,0.5-1.1,0.9
			c-0.3,0.4-0.6,0.8-0.7,1.3c-0.2,0.5-0.3,1-0.3,1.5c0,0.5,0.1,1.1,0.3,1.5c0.2,0.5,0.5,0.9,0.8,1.3c0.3,0.4,0.7,0.7,1.2,0.9
			C71.4,21.7,71.9,21.8,72.4,21.8z"/>
	</g>
	<g>
		<path class="st0" d="M83.6,22.6c-0.7,0-1.3-0.1-1.8-0.4c-0.6-0.3-1.1-0.6-1.5-1.1s-0.7-1-1-1.6s-0.4-1.2-0.4-1.9
			c0-0.7,0.1-1.3,0.4-1.9c0.2-0.6,0.6-1.1,1-1.5c0.4-0.4,0.9-0.8,1.5-1c0.6-0.3,1.2-0.4,1.8-0.4c0.7,0,1.3,0.1,1.8,0.4
			c0.6,0.3,1.1,0.6,1.5,1.1c0.4,0.4,0.7,1,1,1.5c0.2,0.6,0.3,1.2,0.3,1.9c0,0.1,0,0.1,0,0.2s0,0.1,0,0.2h-8.3c0,0.5,0.2,1,0.4,1.5
			s0.5,0.9,0.8,1.2s0.7,0.6,1.2,0.8c0.4,0.2,0.9,0.3,1.4,0.3c0.3,0,0.6,0,1-0.1c0.3-0.1,0.6-0.2,0.9-0.4s0.5-0.3,0.7-0.6
			s0.4-0.5,0.5-0.7l0.8,0.2c-0.1,0.3-0.3,0.6-0.6,0.9s-0.6,0.5-0.9,0.7c-0.3,0.2-0.7,0.4-1.1,0.5C84.4,22.5,84,22.6,83.6,22.6z
			 M87.3,17.3c0-0.6-0.2-1.1-0.4-1.5c-0.2-0.5-0.5-0.9-0.8-1.2c-0.3-0.3-0.7-0.6-1.2-0.8c-0.4-0.2-0.9-0.3-1.4-0.3s-1,0.1-1.4,0.3
			c-0.4,0.2-0.8,0.4-1.2,0.8s-0.6,0.7-0.8,1.2c-0.2,0.5-0.3,1-0.4,1.5H87.3z"/>
	</g>
	<g>
		<path class="st0" d="M92.4,22.6c-0.4,0-0.8-0.1-1.2-0.2c-0.4-0.2-0.7-0.4-1-0.6c-0.3-0.3-0.5-0.6-0.7-0.9
			c-0.2-0.4-0.2-0.7-0.2-1.2c0-0.4,0.1-0.8,0.3-1.1c0.2-0.3,0.5-0.6,0.8-0.9c0.3-0.2,0.8-0.4,1.2-0.6s1-0.2,1.6-0.2
			c0.5,0,1,0,1.5,0.1c0.5,0.1,1,0.2,1.4,0.4v-0.9c0-0.9-0.3-1.6-0.8-2.1c-0.5-0.5-1.2-0.8-2.1-0.8c-0.5,0-0.9,0.1-1.5,0.3
			s-1,0.5-1.6,0.8L90,14.1c1.2-0.8,2.4-1.2,3.4-1.2c1.1,0,2,0.3,2.7,1s1,1.6,1,2.7v4.6c0,0.3,0.1,0.5,0.4,0.5v0.8
			c-0.1,0-0.1,0-0.2,0c-0.1,0-0.1,0-0.2,0c-0.2,0-0.4-0.1-0.6-0.2c-0.1-0.2-0.2-0.4-0.3-0.6v-0.8c-0.4,0.6-1,1-1.7,1.3
			S93.2,22.6,92.4,22.6z M92.6,21.9c0.7,0,1.3-0.1,1.9-0.4s1-0.6,1.4-1.1c0.2-0.3,0.3-0.5,0.3-0.7V18c-0.4-0.2-0.9-0.3-1.4-0.4
			c-0.5-0.1-1-0.1-1.5-0.1c-0.5,0-0.9,0.1-1.3,0.2s-0.7,0.2-1,0.4c-0.3,0.2-0.5,0.4-0.6,0.7s-0.2,0.5-0.2,0.9c0,0.3,0.1,0.6,0.2,0.9
			c0.1,0.3,0.3,0.5,0.5,0.7c0.2,0.2,0.5,0.4,0.8,0.5C92,21.8,92.3,21.9,92.6,21.9z"/>
	</g>
	<g>
		<path class="st0" d="M99.9,9.2h0.9v11.4c0,0.4,0.1,0.6,0.3,0.8c0.2,0.2,0.5,0.3,0.8,0.3c0.1,0,0.3,0,0.5,0c0.2,0,0.4-0.1,0.5-0.1
			l0.2,0.7c-0.2,0.1-0.5,0.2-0.8,0.2s-0.6,0.1-0.8,0.1c-0.5,0-0.9-0.2-1.2-0.5c-0.3-0.3-0.5-0.7-0.5-1.2V9.2z"/>
	</g>
	<g>
		<path class="st0" d="M107.5,22.6c-0.7,0-1.4-0.1-2.1-0.4c-0.7-0.2-1.2-0.6-1.7-1.1l0.5-0.6c0.5,0.5,1,0.8,1.6,1
			c0.5,0.2,1.1,0.3,1.8,0.3c0.8,0,1.5-0.2,2-0.5c0.5-0.3,0.8-0.8,0.8-1.4c0-0.3-0.1-0.5-0.2-0.7s-0.3-0.4-0.6-0.5s-0.6-0.3-0.9-0.4
			c-0.4-0.1-0.8-0.2-1.3-0.3c-0.5-0.1-1-0.2-1.4-0.4s-0.7-0.3-1-0.4c-0.3-0.2-0.4-0.4-0.6-0.6c-0.1-0.2-0.2-0.5-0.2-0.9
			c0-0.5,0.1-0.9,0.3-1.2c0.2-0.3,0.4-0.6,0.8-0.9c0.3-0.2,0.7-0.4,1.1-0.5c0.4-0.1,0.9-0.2,1.3-0.2c0.7,0,1.4,0.1,2,0.4
			c0.6,0.2,1,0.6,1.3,1l-0.5,0.5c-0.3-0.4-0.7-0.6-1.2-0.8c-0.5-0.2-1-0.3-1.6-0.3c-0.4,0-0.7,0-1,0.1c-0.3,0.1-0.6,0.2-0.8,0.3
			s-0.4,0.4-0.5,0.6c-0.1,0.2-0.2,0.5-0.2,0.9c0,0.3,0,0.5,0.1,0.7c0.1,0.2,0.2,0.3,0.4,0.4c0.2,0.1,0.5,0.2,0.8,0.3
			s0.7,0.2,1.1,0.3c0.6,0.1,1.1,0.3,1.6,0.4s0.8,0.3,1.2,0.5c0.3,0.2,0.5,0.4,0.7,0.7c0.2,0.3,0.2,0.6,0.2,1c0,0.8-0.3,1.5-1,2
			C109.5,22.3,108.6,22.6,107.5,22.6z"/>
	</g>
</g>
<g class="st1">
	<polygon class="st0" points="9.1,26.9 10.8,28.3 20.5,23.6 21.1,21.4 	"/>
</g>
<g>
	<path class="st2" d="M4.3,5.4H3.7c0-3,1.6-5.4,3.6-5.4v0.6C5.6,0.6,4.3,2.7,4.3,5.4z"/>
</g>
<g>
	<path class="st2" d="M5.1,9.6L5.1,9.6c-0.7-1-1.4-2-1.4-4.2h0.6c0,2.1,0.6,2.9,1.2,3.8l0.1,0.1L5.1,9.6z"/>
</g>
<g>
	<rect x="0" y="1.5" class="st0" width="113.1" height="1"/>
</g>
<g>
	<g>
		<path class="st3" d="M37.7,9.4v12.9h-2.5V9.4H37.7z"/>
	</g>
	<g>
		<path class="st3" d="M48.3,22.2h-2.5v-0.7l0,0c-0.7,0.5-2.2,0.9-3.1,0.9c-2.4,0-3.4-1.1-3.4-2.7c0-1.6,1.1-2.9,3.6-2.9
			c0.6,0,2,0.1,2.9,0.4l0,0v-0.7c0-0.7-0.3-1.3-2-1.3c-1,0-2.5,0.2-3.7,0.5l-0.5-2c1.7-0.5,3.3-0.7,4.7-0.7c2.9,0,4,1.3,4,3.4V22.2z
			 M45.8,19c-0.6-0.1-1.6-0.2-2.7-0.2c-0.7,0-1.4,0.2-1.4,0.8c0,0.6,0.6,0.8,1.3,0.8c0.7,0,1.9-0.2,2.8-0.5V19z"/>
	</g>
	<g>
		<path class="st3" d="M52.8,14.4c0.9-0.7,1.9-1.4,3.4-1.4v2.4c-1,0-2.6,0.5-3.4,1.1v5.8h-2.5v-9.1h2.5L52.8,14.4L52.8,14.4z"/>
	</g>
	<g>
		<path class="st3" d="M60,16.4h1.3l2.5-3.3h3l-3.4,4.2l3.6,4.8h-3l-2.7-3.8H60v3.8h-2.5V9.4H60V16.4z"/>
	</g>
	<g>
		<path class="st3" d="M31.1,18.8c-0.3,0.9-1.1,1.6-2.3,1.6c-1.7,0-2.5-1.2-2.5-2.7c0-1.4,0.8-2.7,2.5-2.7c1.2,0,2,0.7,2.3,1.6
			l2.6-0.2c-0.5-1.9-2-3.4-4.9-3.4c-3.5,0-5.1,2.2-5.1,4.7c0,2.5,1.6,4.7,5.1,4.7c2.9,0,4.5-1.5,4.9-3.4L31.1,18.8z"/>
	</g>
</g>
<g>
	<path class="st0" d="M11,28.5c-0.4,0-0.8-0.1-1.1-0.2C9.1,28,8.4,27.4,8,26.6L3.3,16.3l2-9.3c0.1-0.6,0.6-1.1,1.2-1.4
		c0.6-0.3,1.3-0.3,1.9,0l8.3,4.5l4.8,10.3c0.8,1.6,0,3.6-1.6,4.4l-7.4,3.4C12,28.4,11.5,28.5,11,28.5z M4.2,16.2l4.6,10
		c0.3,0.6,0.7,1,1.3,1.2c0.6,0.2,1.2,0.2,1.8-0.1l7.4-3.4c1.2-0.6,1.7-2,1.2-3.2l-4.7-10.1l-8-4.3c-0.3-0.2-0.7-0.1-1.1,0
		C6.5,6.6,6.2,6.9,6.1,7.2L4.2,16.2z"/>
</g>
<g>
	<path class="st0" d="M8.5,11.6c-0.2,0-0.4,0-0.6-0.1C7.5,11.3,7.1,11,7,10.6c-0.4-0.8,0-1.8,0.8-2.2c0.8-0.4,1.8,0,2.2,0.8
		c0.2,0.4,0.2,0.8,0.1,1.3s-0.5,0.7-0.9,0.9C8.9,11.5,8.7,11.6,8.5,11.6z M8.5,8.7c-0.2,0-0.3,0-0.5,0.1c-0.6,0.3-0.9,1-0.6,1.6
		C7.5,10.7,7.7,10.9,8,11c0.3,0.1,0.6,0.1,0.9,0c0.3-0.1,0.5-0.4,0.6-0.7c0.1-0.3,0.1-0.6,0-0.9l0,0C9.3,9,8.9,8.7,8.5,8.7z"/>
</g>
<g>
	<rect x="11.8" y="13.3" transform="matrix(0.9842 0.1769 -0.1769 0.9842 3.3716 -1.8663)" class="st0" width="0.6" height="9.4"/>
</g>
<g>
	<path class="st0" d="M9.8,17.7c-0.6,0-1.2-0.3-1.5-0.9c-0.2-0.4-0.2-0.8-0.1-1.2c0.1-0.4,0.4-0.7,0.8-0.9c0.4-0.2,0.8-0.2,1.2,0
		c0.4,0.1,0.7,0.4,0.9,0.8l0,0c0.4,0.8,0,1.8-0.8,2.1C10.3,17.7,10,17.7,9.8,17.7z M9.8,15.1c-0.1,0-0.3,0-0.4,0.1
		c-0.2,0.1-0.4,0.3-0.5,0.6c-0.1,0.2-0.1,0.5,0,0.8c0.2,0.5,0.8,0.7,1.3,0.5c0.5-0.2,0.7-0.8,0.5-1.3h0c-0.1-0.2-0.3-0.4-0.6-0.5
		C10,15.2,9.9,15.1,9.8,15.1z"/>
</g>
<g>
	<path class="st0" d="M14.7,21c-0.6,0-1.2-0.3-1.5-0.9c-0.4-0.8,0-1.8,0.8-2.1c0.4-0.2,0.8-0.2,1.2-0.1c0.4,0.1,0.7,0.4,0.9,0.8
		c0.2,0.4,0.2,0.8,0.1,1.2c-0.1,0.4-0.4,0.7-0.8,0.9C15.1,21,14.9,21,14.7,21z M14.7,18.5c-0.1,0-0.3,0-0.4,0.1
		c-0.5,0.2-0.7,0.8-0.5,1.3c0.2,0.5,0.8,0.7,1.3,0.5c0.2-0.1,0.4-0.3,0.5-0.6c0.1-0.2,0.1-0.5,0-0.8l0,0c-0.1-0.2-0.3-0.4-0.6-0.5
		C14.9,18.5,14.8,18.5,14.7,18.5z"/>
</g>
<g>
	<path class="st2" d="M7,10.6V10c1.6,0,3.3-1.9,3.3-4.6c0-2.6-1.3-4.8-3-4.8V0c2,0,3.6,2.4,3.6,5.4C10.9,8.2,9.1,10.6,7,10.6z"/>
</g>
<g>
	<path class="st0" d="M7.9,11.5C7.5,11.3,7.1,11,7,10.6c-0.2-0.4-0.2-0.8-0.1-1.3l0.4,0.2c-0.1,0.3-0.1,0.6,0,0.9
		C7.5,10.7,7.7,10.9,8,11L7.9,11.5z"/>
</g>
<g>
	<rect x="14.8" y="17.3" transform="matrix(0.4067 0.9136 -0.9136 0.4067 30.9579 0.6107)" class="st0" width="0.5" height="13.6"/>
</g>
</svg>
