<svg version="1.1" id="Layer_1" xmlns="http://www.w3.org/2000/svg" xmlns:xlink="http://www.w3.org/1999/xlink" x="0px" y="0px"
	 viewBox="0 0 457.3 99" style="enable-background:new 0 0 457.3 99;" xml:space="preserve">
<style type="text/css">
	.fb0{fill:#B82025;}
</style>
<g>
	<path d="M220.5,85.1c-8.4,0-17.1-0.7-22.3-1.4l9.3-66.7c5.2-0.7,14.2-1.7,22.5-1.7c15.6,0,32.2,3.5,32.2,17.9
		c0,8.7-5.2,13.8-10.8,16.5c3.7,0.8,9.8,5,9.8,13.3C261.2,81.2,242.1,85.1,220.5,85.1z M238.4,61.2c0-4.7-5.2-5.4-8.9-5.4
		c-0.9,0-3.1,0.1-4,0.2L223.8,68c0.6,0.1,3.3,0.1,4.2,0.1C232.2,68.1,238.4,66.8,238.4,61.2z M227.4,42.9c0.7,0.1,2.5,0.1,3.4,0.1
		c4,0,9-1.1,9-6.6c0-3.8-3.9-4.8-7.1-4.8c-0.9,0-3,0.1-3.9,0.2L227.4,42.9z"/>
	<path d="M334.3,16.6l-5.7,40.7c-2.7,19.1-15.4,27.8-34.8,27.8c-19.4,0-29.6-8.8-27-27.8l5.7-40.7h24.7L291.6,57
		c-0.7,4.8-0.1,8.4,5.1,8.4c5.3,0,6.7-3.7,7.4-8.4l5.7-40.4H334.3z"/>
	<path d="M395.1,16.6l-2.6,18.5l-28.1,29.7h24.6l-2.7,19h-55.5l2.2-15.4l31.5-32.8h-36.3l2.7-19H395.1z"/>
	<path d="M455.5,16.6l-2.6,18.5l-28.1,29.7h24.6l-2.7,19h-55.5l2.2-15.4l31.5-32.8h-36.3l2.7-19H455.5z"/>
</g>
<g>
	<path class="fb0" d="M33.4,35.7l-1.2,8.3h22.5l-2.8,19.8H29.4l-2.8,20.1H2.2l9.4-67.2h50.1l-2.7,19.1H33.4z"/>
	<path class="fb0" d="M121.4,83.8H96.8l-1.3-11.2H76.6l-4.4,11.2H47.4l31.7-67.2h29.3L121.4,83.8z M82.8,56.9h10.7l-2.5-20.7
		L82.8,56.9z"/>
	<path class="fb0" d="M200.5,16.6l-9.4,67.2h-23.3l-15.2-34.5l-4.9,34.5h-22.6l9.4-67.2h24.6l14,34.3l4.8-34.3H200.5z"/>
</g>
<polygon class="fb0" points="215.1,0 13.7,0 13.1,3.3 214.3,3.3 "/>
<polygon class="fb0" points="457.3,0 211.2,0 210.7,3.3 456.7,3.3 "/>
<polygon points="204.2,95.7 0.5,95.7 0,99 203.4,99 "/>
<polygon points="444.2,95.7 198.2,95.7 197.6,99 443.6,99 "/>
</svg>
