<svg version="1.1" id="Layer_1" xmlns="http://www.w3.org/2000/svg" xmlns:xlink="http://www.w3.org/1999/xlink" x="0px" y="0px"
	 viewBox="0 0 281.4 234.7" style="enable-background:new 0 0 281.4 234.7;" xml:space="preserve">
<style type="text/css">
	.ht0{opacity:0.3;fill:#F39A35;}
	.ht1{opacity:0.3;}
	.ht2{opacity:0.5;fill:#F39A35;}
	.ht3{fill:#F39A35;}
</style>
<ellipse class="ht0" cx="146.7" cy="117.4" rx="102.6" ry="97"/>
<g class="ht1">
	<path class="ht2" d="M146.7,0C78.1,0,22.5,52.5,22.5,117.4s55.6,117.4,124.2,117.4s124.2-52.5,124.2-117.4S215.3,0,146.7,0z
		 M146.7,224.1c-62.3,0-112.9-47.8-112.9-106.7S84.4,10.7,146.7,10.7s112.9,47.8,112.9,106.7S209.1,224.1,146.7,224.1z"/>
</g>
<g>
	<g>
		<path class="ht3" d="M64.9,66.4h10v15.8H106V66.4h10V108h-10V90.5H74.9V108h-10V66.4z"/>
		<path class="ht3" d="M123.4,71.4c0.4-1.3,0.9-2.3,1.8-3c0.8-0.8,1.9-1.3,3.3-1.5c1.4-0.3,3-0.4,5-0.4h31.6c2,0,3.7,0.1,5,0.4
			c1.4,0.3,2.4,0.8,3.3,1.5c0.8,0.8,1.4,1.8,1.8,3c0.4,1.3,0.5,2.9,0.5,4.9v21.9c0,2-0.2,3.6-0.5,4.9c-0.4,1.3-1,2.3-1.8,3
			c-0.8,0.7-1.9,1.2-3.3,1.5c-1.4,0.3-3,0.4-5,0.4h-31.6c-2,0-3.7-0.1-5.1-0.4c-1.4-0.3-2.5-0.8-3.3-1.5c-0.8-0.7-1.4-1.7-1.7-3
			c-0.4-1.3-0.5-2.9-0.5-4.9V76.3C122.9,74.3,123.1,72.7,123.4,71.4z M165.8,100v-26h-32.9v26H165.8z"/>
		<path class="ht3" d="M210.1,108h-10V73.9h-19.7v-7.5h49.5v7.5h-19.8V108z"/>
	</g>
	<g>
		<path class="ht3" d="M29,157.9h-9.7V120H0v-7.3h48.4v7.3H29V157.9z"/>
		<path class="ht3" d="M52.2,122.9c0.3-1.2,0.9-2.2,1.7-3c0.8-0.7,1.9-1.2,3.2-1.5c1.3-0.3,3-0.4,4.9-0.4h30.9c2,0,3.6,0.1,4.9,0.4
			c1.3,0.3,2.4,0.8,3.2,1.5c0.8,0.7,1.4,1.7,1.7,3c0.3,1.2,0.5,2.8,0.5,4.8v21.4c0,1.9-0.2,3.5-0.5,4.8c-0.3,1.2-0.9,2.2-1.7,2.9
			c-0.8,0.7-1.9,1.2-3.2,1.5c-1.3,0.3-3,0.4-4.9,0.4H62c-2,0-3.6-0.1-5-0.4c-1.4-0.3-2.4-0.8-3.2-1.5c-0.8-0.7-1.4-1.7-1.7-2.9
			c-0.3-1.2-0.5-2.8-0.5-4.8v-21.4C51.7,125.7,51.8,124.1,52.2,122.9z M93.6,150.9v-25.4H61.4v25.4H93.6z"/>
		<path class="ht3" d="M112.6,118h36c3.2,0,5.6,0.6,7.1,1.8c1.5,1.2,2.3,3.2,2.3,6.1v9c0,2.9-0.8,4.9-2.3,6.1
			c-1.5,1.2-3.9,1.8-7.1,1.8h-26.4v15.9h-9.6V118z M122.2,125v10.8h22.2c1.4,0,2.5-0.2,3.3-0.6c0.8-0.4,1.1-1.3,1.1-2.6v-4.2
			c0-1.3-0.4-2.2-1.1-2.6c-0.8-0.4-1.9-0.6-3.3-0.6H122.2z"/>
		<path class="ht3" d="M164.8,118h9.7v40.7h-9.7V118z"/>
		<path class="ht3" d="M193,125.5v25.4h26.3v-8.7l9.8,2v4.8c0,1.9-0.2,3.5-0.5,4.7c-0.3,1.2-0.9,2.2-1.7,2.9
			c-0.8,0.7-1.9,1.2-3.2,1.5c-1.3,0.3-3,0.4-5,0.4h-24.9c-2,0-3.7-0.1-5-0.4c-1.3-0.3-2.4-0.8-3.2-1.5c-0.8-0.7-1.4-1.7-1.7-3
			c-0.3-1.2-0.5-2.8-0.5-4.7v-21.4c0-1.9,0.2-3.5,0.5-4.7c0.3-1.2,0.9-2.2,1.7-2.9c0.8-0.7,1.9-1.2,3.2-1.5c1.4-0.3,3-0.4,5-0.4
			h24.9c2,0,3.7,0.1,5,0.4c1.3,0.3,2.4,0.8,3.2,1.5c0.8,0.7,1.4,1.7,1.7,2.9c0.3,1.2,0.5,2.8,0.5,4.8v3.9l-9.8,1.4v-7.5H193z"/>
		<path class="ht3" d="M245.1,125.3v8.6h26c2,0,3.7,0.1,5,0.4c1.3,0.3,2.4,0.8,3.2,1.5c0.8,0.7,1.4,1.7,1.7,2.9
			c0.3,1.2,0.5,2.8,0.5,4.8v5.6c0,1.9-0.2,3.5-0.5,4.7c-0.3,1.2-0.9,2.2-1.7,2.9c-0.8,0.7-1.8,1.2-3.2,1.5c-1.3,0.3-3,0.4-5,0.4h-26
			c-2,0-3.6-0.1-5-0.4c-1.4-0.3-2.4-0.8-3.3-1.5c-0.8-0.7-1.4-1.7-1.7-2.9c-0.3-1.2-0.5-2.8-0.5-4.7V148l8.8-1.6v4.8h29.3v-9.4
			h-25.9c-2,0-3.6-0.1-5-0.4c-1.4-0.3-2.4-0.8-3.3-1.5c-0.8-0.7-1.4-1.7-1.7-2.9c-0.3-1.2-0.5-2.8-0.5-4.8v-4.5
			c0-1.9,0.2-3.5,0.5-4.8c0.3-1.2,0.9-2.2,1.7-2.9c0.8-0.7,1.9-1.2,3.3-1.5c1.4-0.3,3-0.4,5-0.4h23.7c1.8,0,3.4,0.1,4.7,0.4
			c1.3,0.3,2.4,0.7,3.3,1.4c0.8,0.7,1.5,1.6,1.9,2.7c0.4,1.1,0.6,2.6,0.6,4.4v1l-8.4,1.8v-4.3H245.1z"/>
	</g>
</g>
</svg>
