<svg id="Layer_1" data-name="Layer 1" xmlns="http://www.w3.org/2000/svg" viewBox="0 0 401.33 163.63"><defs><style>.cls-1{fill:#7f3043;}</style></defs><title>RareCountry_Logo_Small</title><path class="cls-1" d="M103.64,336.5a4.3,4.3,0,0,0-4.3,4.3V345a4.3,4.3,0,0,0,4.3,4.3H496.36a4.3,4.3,0,0,0,4.3-4.3V340.8a4.3,4.3,0,0,0-4.3-4.3Zm394.3,10.08H102.07v-7.35H497.93Z" transform="translate(-99.33 -185.69)"/><path class="cls-1" d="M196.77,235.19h-4.91v-11h8L214,250.77h23.44V235.19H232.8l-9-14.88a15.76,15.76,0,0,0,6.88-6,16.73,16.73,0,0,0,2.62-9.17,17.28,17.28,0,0,0-4.3-11.7,19.75,19.75,0,0,0-11.09-6.32,52.59,52.59,0,0,0-5.34-.82q-2.89-.3-7-.47t-8.84-.16H161.4v15.58h5.29v33.92H161.4v15.58h35.37ZM191.86,200h2.3a62,62,0,0,1,7.86.33,6.1,6.1,0,0,1,3.69,1.87,5.53,5.53,0,0,1,1.45,4,5.37,5.37,0,0,1-1.45,4,6,6,0,0,1-3.55,1.87,54.57,54.57,0,0,1-7.49.33h-2.81Z" transform="translate(-99.33 -185.69)"/><path class="cls-1" d="M270.73,213.71a11.62,11.62,0,0,1,5.43,1.22,6,6,0,0,1,2.9,3,19.51,19.51,0,0,1,.61,5.89v1.36q-5.19-2.29-14-2.29-9.64,0-15.63,4.07t-6,10.43a12.75,12.75,0,0,0,4.91,10q4.87,4.21,14.45,4.21,10.21,0,16.28-3.93v3.09H309V236.5h-5.8V223.4q0-6.22-1.21-9.17a13.9,13.9,0,0,0-4.17-5.33q-3-2.43-9.22-3.6a57.62,57.62,0,0,0-6.81-.91q-3.81-.3-8.63-.3-13.06,0-19.75,2.71a17.63,17.63,0,0,0-9.82,9.4L262,218.06A10,10,0,0,1,270.73,213.71Zm8.94,25.45a10.38,10.38,0,0,1-7.11,2.39,6.28,6.28,0,0,1-4.4-1.78,6.27,6.27,0,0,1,0-8.89A7,7,0,0,1,273,229.2a13.84,13.84,0,0,1,6.64,1.68Z" transform="translate(-99.33 -185.69)"/><path class="cls-1" d="M352.37,236.5h-6.87a14.38,14.38,0,0,1,1.41-6.64,9.35,9.35,0,0,1,5-3.93q3.51-1.45,10.71-1.45c.78,0,1.43,0,2,0v-20a36.05,36.05,0,0,0-9.22.89,15.78,15.78,0,0,0-6.45,4,18.9,18.9,0,0,0-4.91,7.35V205.38H315.79v14.27H322V236.5h-6.17v14.27h36.58Z" transform="translate(-99.33 -185.69)"/><path class="cls-1" d="M377.17,245.48q8,6.6,23.86,6.6a33.84,33.84,0,0,0,16.24-3.65,22.52,22.52,0,0,0,5.71-4.19,17.89,17.89,0,0,0,3.65-5.45l-19.41-2.38q-2.15,5.05-7,5.05-8.09,0-8.23-11H427.7q-.52-13.29-8.47-19.79t-21-6.55q-13.38,0-21.19,6.92a22.06,22.06,0,0,0-7.91,17.31A21.13,21.13,0,0,0,377.17,245.48ZM393.87,217a5.44,5.44,0,0,1,4.86-2.62,6,6,0,0,1,5,2.39,9.76,9.76,0,0,1,1.87,6.13c0,.12,0,.65-.09,1.59H392.23a9,9,0,0,1,0-.93A12,12,0,0,1,393.87,217Z" transform="translate(-99.33 -185.69)"/><polygon class="cls-1" points="329.17 20.48 331.21 20.48 331.21 15.07 333.69 15.07 333.69 13.39 326.72 13.39 326.72 15.07 329.17 15.07 329.17 20.48"/><polygon class="cls-1" points="336.46 15.46 337.77 20.48 339.39 20.48 340.72 15.46 340.72 20.48 342.63 20.48 342.63 13.39 339.62 13.39 338.59 17.26 337.61 13.39 334.5 13.39 334.5 20.48 336.46 20.48 336.46 15.46"/><path class="cls-1" d="M103.79,250.63H153.1c1.19,0,2-.25,2-1.43s-.83-1.3-2-1.3H103v-6.35H153.1c1.19,0,2.15-.22,2.15-1.4s-1-1.33-2.15-1.33H103.79A3.79,3.79,0,0,0,100,242.6v4.25a3.79,3.79,0,0,0,3.78,3.78Z" transform="translate(-99.33 -185.69)"/><path class="cls-1" d="M494.18,238.81H437c-1.19,0-2,.25-2,1.43s.83,1.3,2,1.3H495v6.35H432.3c-1.19,0-2.15.22-2.15,1.4s1,1.33,2.15,1.33h61.88a3.79,3.79,0,0,0,3.78-3.78V242.6a3.79,3.79,0,0,0-3.78-3.78Z" transform="translate(-99.33 -185.69)"/><path class="cls-1" d="M130.4,266.52a32.39,32.39,0,0,1,6.55.61,27.31,27.31,0,0,1,5.42,1.71,24.48,24.48,0,0,1,4.62,2.65,40.45,40.45,0,0,1,4.09,3.45L147,279.32a33.5,33.5,0,0,0-7.31-5.23,20.46,20.46,0,0,0-24,4.24,21.41,21.41,0,0,0-4.32,6.93,23.22,23.22,0,0,0-1.55,8.52v.15a23.43,23.43,0,0,0,1.55,8.6,21.42,21.42,0,0,0,4.32,6.93,20.38,20.38,0,0,0,6.52,4.66,19.46,19.46,0,0,0,8.14,1.7,20.47,20.47,0,0,0,9.39-2,32.74,32.74,0,0,0,7.73-5.65l3.94,3.86a37.77,37.77,0,0,1-4.28,3.83,26.53,26.53,0,0,1-4.81,2.92,27.31,27.31,0,0,1-5.53,1.89,29.31,29.31,0,0,1-6.59.68,26.09,26.09,0,0,1-19-7.92,26.48,26.48,0,0,1-5.57-8.68,28.39,28.39,0,0,1-2-10.68v-.15a28.19,28.19,0,0,1,2-10.61,27.37,27.37,0,0,1,5.57-8.75,25.9,25.9,0,0,1,8.49-5.91,26.5,26.5,0,0,1,10.76-2.16m0-3a29.59,29.59,0,0,0-12,2.41,29,29,0,0,0-9.45,6.59,30.46,30.46,0,0,0-6.17,9.7,31.28,31.28,0,0,0-2.22,11.72v.15a31.49,31.49,0,0,0,2.22,11.8,29.57,29.57,0,0,0,6.19,9.64,29.08,29.08,0,0,0,21.16,8.83,32.43,32.43,0,0,0,7.26-.76,30.43,30.43,0,0,0,6.13-2.1,29.63,29.63,0,0,0,5.35-3.24,40.94,40.94,0,0,0,4.62-4.13,3,3,0,0,0-.06-4.2l-3.94-3.86a3,3,0,0,0-4.16,0,29.93,29.93,0,0,1-7,5.14,17.64,17.64,0,0,1-8,1.68,16.59,16.59,0,0,1-6.91-1.44,17.5,17.5,0,0,1-5.57-4,18.55,18.55,0,0,1-3.72-6,20.58,20.58,0,0,1-1.35-7.51v-.15a20.36,20.36,0,0,1,1.35-7.44,18.55,18.55,0,0,1,3.72-6,18,18,0,0,1,20.45-3.64A30.66,30.66,0,0,1,145,281.5a3,3,0,0,0,2,.8h.1a3,3,0,0,0,2.08-.95l4.09-4.39a3,3,0,0,0-.12-4.19,43.63,43.63,0,0,0-4.39-3.7,27.59,27.59,0,0,0-5.18-3,30.42,30.42,0,0,0-6-1.89,35.52,35.52,0,0,0-7.16-.67Z" transform="translate(-99.33 -185.69)"/><path class="cls-1" d="M186.62,266.52a27,27,0,0,1,11,2.2,26.1,26.1,0,0,1,14,14.66,28.47,28.47,0,0,1,1.93,10.42.1.1,0,0,1,0,.15,28.27,28.27,0,0,1-2,10.46,27.5,27.5,0,0,1-36.18,14.78,26.11,26.11,0,0,1-14-14.66,28.46,28.46,0,0,1-1.93-10.42v-.15a28.25,28.25,0,0,1,2-10.46,26.55,26.55,0,0,1,25.15-17m0,49.32a20.35,20.35,0,0,0,8.37-1.7,19.75,19.75,0,0,0,6.55-4.66,21.89,21.89,0,0,0,4.28-6.9,22.94,22.94,0,0,0,1.55-8.49v-.15a23.24,23.24,0,0,0-1.55-8.52,20.88,20.88,0,0,0-11-11.63,20,20,0,0,0-8.37-1.74,20.33,20.33,0,0,0-8.37,1.71,19.73,19.73,0,0,0-6.55,4.66,21.88,21.88,0,0,0-4.28,6.89,22.93,22.93,0,0,0-1.55,8.49v.15a23.22,23.22,0,0,0,1.55,8.52,20.87,20.87,0,0,0,11,11.63,19.94,19.94,0,0,0,8.37,1.74m0-52.31a29.45,29.45,0,0,0-27.93,18.86,31.35,31.35,0,0,0-2.18,11.55v.15a31.56,31.56,0,0,0,2.14,11.5,29.09,29.09,0,0,0,15.59,16.31,31.59,31.59,0,0,0,24.51,0,29.34,29.34,0,0,0,15.65-16.37,31.35,31.35,0,0,0,2.18-11.13,3.06,3.06,0,0,0,0-1,31.53,31.53,0,0,0-2.13-11.08A29.08,29.08,0,0,0,198.85,266a30,30,0,0,0-12.23-2.45Zm0,49.32a17.07,17.07,0,0,1-7.13-1.47,17.89,17.89,0,0,1-9.44-10,20.36,20.36,0,0,1-1.35-7.44v-.15A20.07,20.07,0,0,1,170,286.4a19,19,0,0,1,3.7-6,16.86,16.86,0,0,1,5.58-4,17.46,17.46,0,0,1,7.16-1.45,17.1,17.1,0,0,1,7.14,1.47,17.89,17.89,0,0,1,9.44,10,20.38,20.38,0,0,1,1.35,7.44v.15a20.07,20.07,0,0,1-1.35,7.39,19,19,0,0,1-3.7,6,16.88,16.88,0,0,1-5.58,4,17.48,17.48,0,0,1-7.16,1.45Z" transform="translate(-99.33 -185.69)"/><path class="cls-1" d="M269.58,267.43v30.38A30,30,0,0,1,268,308a20,20,0,0,1-4.51,7.35,18.62,18.62,0,0,1-7,4.43,28.25,28.25,0,0,1-18,0,18.82,18.82,0,0,1-7-4.39,19.67,19.67,0,0,1-4.51-7.24,28.61,28.61,0,0,1-1.59-9.92V267.43h6v30.46q0,8.64,4.28,13.26t11.93,4.62q7.35,0,11.67-4.39t4.32-13.11V267.43h6m0-3h-6a3,3,0,0,0-3,3v30.84c0,5-1.16,8.68-3.46,11s-5.44,3.5-9.54,3.5c-4.27,0-7.46-1.2-9.74-3.67s-3.49-6.27-3.49-11.23V267.43a3,3,0,0,0-3-3h-6a3,3,0,0,0-3,3v30.84a31.7,31.7,0,0,0,1.77,11,22.72,22.72,0,0,0,5.2,8.32,21.86,21.86,0,0,0,8.06,5.09,31.22,31.22,0,0,0,20.08,0,21.66,21.66,0,0,0,8.07-5.14,23,23,0,0,0,5.19-8.43,33.09,33.09,0,0,0,1.77-11.24V267.43a3,3,0,0,0-3-3Z" transform="translate(-99.33 -185.69)"/><path class="cls-1" d="M328.6,267.43v53h-4.77L289.59,277v43.49h-5.83v-53h5.61l33.41,42.5v-42.5h5.83m0-3h-5.83a3,3,0,0,0-3,3v33.88L291.7,265.58a3,3,0,0,0-2.35-1.14h-5.61a3,3,0,0,0-3,3v53a3,3,0,0,0,3,3h5.83a3,3,0,0,0,3-3V285.59l28.92,36.72a3,3,0,0,0,2.34,1.14h4.77a3,3,0,0,0,3-3v-53a3,3,0,0,0-3-3Z" transform="translate(-99.33 -185.69)"/><path class="cls-1" d="M381.41,267.43V273H363.61v47.5h-6V273H339.82v-5.53h41.6m0-3h-41.6a3,3,0,0,0-3,3V273a3,3,0,0,0,3,3h14.82v44.52a3,3,0,0,0,3,3h6a3,3,0,0,0,3-3V275.94h14.82a3,3,0,0,0,3-3v-5.53a3,3,0,0,0-3-3Z" transform="translate(-99.33 -185.69)"/><path class="cls-1" d="M415.51,267.43a25.35,25.35,0,0,1,8.75,1.4,17.13,17.13,0,0,1,6.33,3.9,13.64,13.64,0,0,1,3,4.62,15.59,15.59,0,0,1,1.06,5.83v.15a15.72,15.72,0,0,1-1.06,5.95,13.58,13.58,0,0,1-3,4.55A16.17,16.17,0,0,1,426,297a22.17,22.17,0,0,1-5.76,1.78l16.29,21.67h-7.35l-15.38-20.61H398.69v20.61h-6v-53h22.81m-16.82,27H415a18.82,18.82,0,0,0,5.47-.76,13.36,13.36,0,0,0,4.33-2.16,9.7,9.7,0,0,0,3.87-8v-.15a9.18,9.18,0,0,0-3.57-7.69q-3.57-2.76-10-2.77H398.69v21.52m16.82-30H392.7a3,3,0,0,0-3,3v53a3,3,0,0,0,3,3h6a3,3,0,0,0,3-3V302.84h10.67l14.48,19.41a3,3,0,0,0,2.39,1.2h7.35a3,3,0,0,0,2.39-4.78l-13.63-18.13q1-.37,2-.83a19.22,19.22,0,0,0,5.42-3.77,16.61,16.61,0,0,0,3.65-5.53,18.75,18.75,0,0,0,1.28-7.07v-.15a18.63,18.63,0,0,0-1.27-6.94,16.68,16.68,0,0,0-3.69-5.62,20.16,20.16,0,0,0-7.41-4.59,28.43,28.43,0,0,0-9.78-1.58Zm-13.84,11.5h13.42c3.61,0,6.37.72,8.2,2.14a6.22,6.22,0,0,1,2.41,5.33v.15a6.72,6.72,0,0,1-2.71,5.63,10.46,10.46,0,0,1-3.37,1.67,16,16,0,0,1-4.61.63H401.67V275.94Z" transform="translate(-99.33 -185.69)"/><path class="cls-1" d="M492.11,267.43h0m0,0-22,32v21.06h-6v-21l-22-32h7.27l17.84,26.52,18-26.52h7m0-3h-7a3,3,0,0,0-2.47,1.31l-15.52,22.86-15.38-22.85a3,3,0,0,0-2.48-1.32H442a3,3,0,0,0-2.46,4.68l21.52,31.28v20.06a3,3,0,0,0,3,3h6a3,3,0,0,0,3-3V300.33l21.47-31.13a3,3,0,0,0-2.4-4.76Zm0,6h0Z" transform="translate(-99.33 -185.69)"/></svg>