<svg xmlns="http://www.w3.org/2000/svg" style="display:none"><defs><style>.cls-1{fill:#7f3043}</style></defs><symbol id="icon-altdriver" viewBox="0 0 664 136.4"><style>.ad0{fill:#4cb748}.ad1{fill:#231f20}</style><path class="ad0" d="M53.6 62.2h3.9s1.1-5.4 1.1-7.9c0-7.4-4.3-12.1-14.5-12.1-12.4 0-23.8 7.6-23.8 7.6L16.4 38s13.5-8.3 30.4-8.3c14.8 0 27.1 6.3 27.1 22.8 0 9.3-7.2 33.4-7.2 40.3 0 5.7 3.3 6.9 7.2 6.9 2.2 0 3.6-.3 3.6-.3l-2.2 11.8s-2.8.3-7.2.3c-9 0-16.2-3.6-16.4-14.5h-.3c.2 0-10.2 16.1-28.2 16.1-12.6 0-23.2-6.9-23.2-20.2 0-25 32-30.7 53.6-30.7zm-25.9 39.1c12.9 0 24.1-14.3 27.1-26l.8-3.1h-4.1c-11.2 0-36.2 1.6-36.2 18.3 0 6.1 3.8 10.8 12.4 10.8zM86.5 88.5l15-76.7H88L90.4 0h28.5l-16.7 87.1c-.5 1.9-.8 4.1-.8 5.4 0 5.8 3.2 6.6 7.2 6.6 2.4 0 3.8-.3 3.8-.3l-2.5 12.6s-3.2.3-6.3.3c-7.7 0-18-1.9-18-15.9.1-2.1.4-4.6.9-7.3zM127.2 80.5l7.2-37.2H121l2.4-11.8h13.7l4.3-21.9h14.8L152 31.5h19.2l-2.4 11.8h-19.2l-7.1 37.2c-.5 2.2-.6 4.6-.6 6.1 0 10.9 7.2 12.6 13.2 12.6 2.5 0 4.4-.3 4.4-.3l-2.5 12.6s-2.5.3-5 .3c-12.3 0-25.7-4.4-25.7-23.3 0-2.3.3-5 .9-8zM160.7 121.6h95.2v14.8h-95.2v-14.8z"/><path class="ad1" d="M292.6 29.6c18.1 0 24.6 13.4 24.6 13.4h.3s-.5-2.5-.5-6V11.8h-13.2V0h28.5v95.9c0 2.4 1.3 3.5 3.5 3.5h8v11.8h-15.9c-7.1 0-9.9-3.5-9.9-8.7v-1.1c0-2.7.5-4.3.5-4.3h-.3s-6.5 15.9-26.9 15.9c-21.4 0-34.8-17-34.8-41.7-.1-25.3 14.7-41.7 36.1-41.7zm1.9 70.3c11.8 0 23-8.5 23-28.4 0-14.6-7.4-28.5-22.5-28.5-12.8 0-23 10.2-23 28.4 0 17.3 9.3 28.5 22.5 28.5zM347.7 99.4h12V46.8c0-2.4-1.3-3.5-3.5-3.5h-9.9V31.5h18c6.9 0 10.2 2.8 10.2 9.3v5c0 3.2-.3 5.5-.3 5.5h.3c3.6-11.7 12.9-20.8 25.2-20.8 2 0 3.9.3 3.9.3V46s-1.9-.5-4.4-.5c-17 0-24.3 17.2-24.3 32.8v21.1h11.8v11.8h-39.1V99.4zM409 99.4h12.4V43.3h-13.2V31.5h28.5v67.9h12.6v11.8H409V99.4zM421.1 0h16.1v15.6h-16.1V0zM442.5 31.5h35.8v11.8h-10.2L485 89.8c1.3 3.5 1.7 7.4 1.7 7.4h.5s.5-3.9 1.7-7.4l17-46.5h-10.2V31.5h35.6v11.8h-9.9l-25.8 67.9h-17.2l-25.7-67.9h-10.1V31.5zM567 29.6c22.7 0 34.5 16.7 34.5 37.3 0 2-.5 5.8-.5 5.8h-58.3c.9 17.6 13.4 27.1 27.6 27.1 13.9 0 23.8-9 23.8-9l6.3 11.2s-12 11-31 11c-25.1 0-42.2-18.1-42.2-41.7-.1-25.3 17.1-41.7 39.8-41.7zM585.7 63c-.5-14-9-21.3-19.1-21.3-11.7 0-21.1 7.9-23.3 21.3h42.4zM608.1 99.4h12V46.8c0-2.4-1.3-3.5-3.5-3.5h-9.9V31.5h18c6.9 0 10.2 2.8 10.2 9.3v5c0 3.2-.3 5.5-.3 5.5h.3c3.6-11.7 12.9-20.8 25.2-20.8 2 0 3.9.3 3.9.3V46s-1.9-.5-4.4-.5c-17 0-24.3 17.2-24.3 32.8v21.1h11.8v11.8H608V99.4z"/></symbol><symbol id="icon-clark" viewBox="0 0 444.9 157.6"><style>.ch0{fill:#00af41}.ch1{fill:#55565a}</style><path class="ch0" d="M51.7 18.4V0H0v157.6h51.7v-18.1c-15.6-3.7-25.5-15.9-25.5-32.8V51.2c0-16.9 9.9-29.2 25.5-32.8zM70.8 139.8v17.8h52.9V0H70.8v18.1c16.2 3.3 26.6 15.8 26.6 33v2.6c0 4.5-3.7 8.2-8.4 8.2h-9.9c-4.6 0-8.4-3.7-8.4-8.2v-2.6c0-6.1-3.5-9.8-9.1-9.8-5.4 0-9.1 4-9.1 9.8v55.6c0 6.1 3.5 9.8 9.1 9.8 5.4 0 9.1-3.9 9.1-9.8v-2.6c0-4.5 3.7-8.2 8.4-8.2H89c4.6 0 8.4 3.7 8.4 8.2v2.6c0 17.4-10.4 29.8-26.6 33.1z"/><path class="ch1" d="M270.3 15.7v58.4h-11.5V15.7h11.5zM317.4 74.1h-11.5v-3.2l-.2-.1c-3.4 2.5-9.8 4.1-14.1 4.1-11.1 0-15.6-4.9-15.6-12.3s4.9-13.2 16.5-13.2c2.9 0 9.1.4 13.2 1.6l.2-.1v-3.2c0-3.4-1.6-5.8-8.9-5.8-4.6 0-11.4.9-16.9 2.5l-2.1-9c7.7-2.2 15-3.3 21.4-3.3 13.2 0 17.9 5.8 17.9 15.6v26.4zm-11.5-14.8c-2.6-.4-7.4-.8-12.2-.8-3.4 0-6.2.8-6.2 3.7 0 2.9 2.9 3.7 5.8 3.7 3.1 0 8.7-.8 12.6-2.5v-4.1zM336.5 38.4c4.1-3.1 8.6-6.3 15.5-6.3v10.7c-4.5 0-11.9 2.5-15.6 4.9V74h-11.5V33h11.5v5.3l.1.1zM366.8 47.8h5.8L383.9 33h13.7l-15.5 19.2 16.4 22h-13.7l-12.2-17.3h-5.8v17.3h-11.5V15.7h11.5v32.1zM172.9 95.4c4.1-3.1 9-6.3 15.9-6.3 10.4 0 14.6 5.8 14.6 16.4V131h-11.5v-24.7c0-5.8-2.9-7.4-6.8-7.4-4.9 0-9.3 3.2-12.3 5.8V131h-11.5V72.7h11.5v22.6l.1.1zM231 89.1c15.9 0 23 9.9 23 21.4 0 11.5-7.2 21.4-23 21.4s-23-9.9-23-21.4c0-11.5 7.1-21.4 23-21.4zm0 33.8c7.6 0 11.3-5.6 11.3-12.3 0-6.5-3.6-12.3-11.3-12.3-7.6 0-11.3 5.8-11.3 12.3 0 6.7 3.7 12.3 11.3 12.3zM267.2 131.3l-14-41.4h12.9l8.6 30 8.9-30h12.7l8.9 30 8.6-30h12.9l-14 41.4h-15.2l-7.8-23-7.4 23h-15.1zM367.4 131.1h-11.5v-3.2l-.2-.1c-3.4 2.5-9.8 4.1-14.1 4.1-11.1 0-15.6-4.9-15.6-12.3s4.9-13.2 16.5-13.2c2.9 0 9.1.4 13.2 1.6l.2-.1v-3.2c0-3.4-1.6-5.8-8.9-5.8-4.6 0-11.4.9-16.9 2.5l-2.1-9c7.7-2.2 15-3.3 21.4-3.3 13.2 0 17.9 5.8 17.9 15.6v26.4zm-11.6-14.8c-2.6-.4-7.4-.8-12.2-.8-3.4 0-6.2.8-6.2 3.7 0 2.9 2.9 3.7 5.8 3.7 3.1 0 8.7-.8 12.6-2.5v-4.1zM386.4 95.4c4.1-3.1 8.6-6.3 15.5-6.3v10.7c-4.5 0-11.9 2.5-15.6 4.9V131h-11.5V90h11.5v5.3l.1.1zM433.4 91.6V72.7h11.5v55.8c-5.3 2.2-12.3 3.5-19.7 3.5-14.8 0-23.3-9.6-23.3-21.1 0-12.1 7.2-21.6 20.4-21.6 4.4 0 8.1 1.2 10.9 2.6l.2-.3zm-8.6 7.4c-3.3 0-11.2 1.3-11.2 11.8 0 10.6 7.9 12.1 11.6 12.1 2.5 0 5.3-.4 8.2-1.2v-20.6c-2.5-1.3-5.3-2.1-8.6-2.1zM243.7 58.6c-1.4 4.2-4.9 7.2-10.5 7.2-7.7 0-11.3-5.6-11.3-12.3 0-6.5 3.6-12.3 11.3-12.3 5.5 0 9 3.1 10.4 7.2l11.9-.7c-2.1-8.8-9.2-15.6-22.4-15.6-15.9 0-23 9.9-23 21.4 0 11.5 7.2 21.4 23 21.4 13.1 0 20.3-6.7 22.4-15.6l-11.8-.7z"/></symbol><symbol id="icon-clarkdeals" viewBox="0 0 113.1 28.5"><style>.st0{fill:#00af41}.st1{opacity:.5}.st2{fill:#a7a9ac}.st3{fill:#58595b}</style><path class="st0" d="M72.3 22.6c-.7 0-1.3-.1-1.8-.4s-1-.6-1.4-1.1c-.4-.5-.7-1-.9-1.6-.2-.6-.3-1.2-.3-1.8 0-.7.1-1.3.3-1.9.2-.6.5-1.1.9-1.6s.8-.8 1.4-1.1 1.1-.4 1.7-.4c.4 0 .8.1 1.2.2.4.1.7.3 1 .5s.6.4.9.7.5.5.7.9V9.2h.9v12c0 .3.1.5.4.5v.8h-.2-.1c-.2 0-.4-.1-.6-.3-.2-.2-.3-.4-.3-.6v-1.1c-.4.6-.9 1.1-1.5 1.5-.9.4-1.6.6-2.3.6zm.1-.8c.3 0 .7-.1 1.1-.2.4-.1.7-.3 1-.6.3-.2.6-.5.8-.8s.4-.6.4-1v-3.1c-.1-.3-.3-.7-.6-1-.2-.3-.5-.6-.8-.8-.3-.2-.7-.4-1-.5s-.7-.2-1.1-.2c-.5 0-1 .1-1.5.4-.4.2-.8.5-1.1.9-.3.4-.6.8-.7 1.3-.2.5-.3 1-.3 1.5s.1 1.1.3 1.5c.2.5.5.9.8 1.3.3.4.7.7 1.2.9.5.3 1 .4 1.5.4zM83.6 22.6c-.7 0-1.3-.1-1.8-.4-.6-.3-1.1-.6-1.5-1.1s-.7-1-1-1.6-.4-1.2-.4-1.9.1-1.3.4-1.9c.2-.6.6-1.1 1-1.5.4-.4.9-.8 1.5-1 .6-.3 1.2-.4 1.8-.4.7 0 1.3.1 1.8.4.6.3 1.1.6 1.5 1.1.4.4.7 1 1 1.5.2.6.3 1.2.3 1.9v.4h-8.3c0 .5.2 1 .4 1.5s.5.9.8 1.2.7.6 1.2.8c.4.2.9.3 1.4.3.3 0 .6 0 1-.1.3-.1.6-.2.9-.4s.5-.3.7-.6.4-.5.5-.7l.8.2c-.1.3-.3.6-.6.9s-.6.5-.9.7c-.3.2-.7.4-1.1.5-.6.1-1 .2-1.4.2zm3.7-5.3c0-.6-.2-1.1-.4-1.5-.2-.5-.5-.9-.8-1.2-.3-.3-.7-.6-1.2-.8-.4-.2-.9-.3-1.4-.3s-1 .1-1.4.3c-.4.2-.8.4-1.2.8s-.6.7-.8 1.2c-.2.5-.3 1-.4 1.5h7.6zM92.4 22.6c-.4 0-.8-.1-1.2-.2-.4-.2-.7-.4-1-.6-.3-.3-.5-.6-.7-.9-.2-.4-.2-.7-.2-1.2 0-.4.1-.8.3-1.1.2-.3.5-.6.8-.9.3-.2.8-.4 1.2-.6s1-.2 1.6-.2c.5 0 1 0 1.5.1s1 .2 1.4.4v-.9c0-.9-.3-1.6-.8-2.1s-1.2-.8-2.1-.8c-.5 0-.9.1-1.5.3s-1 .5-1.6.8l-.1-.6c1.2-.8 2.4-1.2 3.4-1.2 1.1 0 2 .3 2.7 1s1 1.6 1 2.7v4.6c0 .3.1.5.4.5v.8h-.4c-.2 0-.4-.1-.6-.2l-.3-.6v-.8c-.4.6-1 1-1.7 1.3s-1.3.4-2.1.4zm.2-.7c.7 0 1.3-.1 1.9-.4s1-.6 1.4-1.1c.2-.3.3-.5.3-.7V18c-.4-.2-.9-.3-1.4-.4-.5-.1-1-.1-1.5-.1s-.9.1-1.3.2-.7.2-1 .4c-.3.2-.5.4-.6.7s-.2.5-.2.9c0 .3.1.6.2.9.1.3.3.5.5.7.2.2.5.4.8.5.3 0 .6.1.9.1zM99.9 9.2h.9v11.4c0 .4.1.6.3.8.2.2.5.3.8.3h.5c.2 0 .4-.1.5-.1l.2.7c-.2.1-.5.2-.8.2s-.6.1-.8.1c-.5 0-.9-.2-1.2-.5-.3-.3-.5-.7-.5-1.2V9.2zM107.5 22.6c-.7 0-1.4-.1-2.1-.4-.7-.2-1.2-.6-1.7-1.1l.5-.6c.5.5 1 .8 1.6 1 .5.2 1.1.3 1.8.3.8 0 1.5-.2 2-.5s.8-.8.8-1.4c0-.3-.1-.5-.2-.7s-.3-.4-.6-.5-.6-.3-.9-.4c-.4-.1-.8-.2-1.3-.3-.5-.1-1-.2-1.4-.4s-.7-.3-1-.4c-.3-.2-.4-.4-.6-.6-.1-.2-.2-.5-.2-.9 0-.5.1-.9.3-1.2.2-.3.4-.6.8-.9.3-.2.7-.4 1.1-.5.4-.1.9-.2 1.3-.2.7 0 1.4.1 2 .4.6.2 1 .6 1.3 1l-.5.5c-.3-.4-.7-.6-1.2-.8-.5-.2-1-.3-1.6-.3-.4 0-.7 0-1 .1-.3.1-.6.2-.8.3s-.4.4-.5.6c-.1.2-.2.5-.2.9 0 .3 0 .5.1.7.1.2.2.3.4.4.2.1.5.2.8.3s.7.2 1.1.3c.6.1 1.1.3 1.6.4s.8.3 1.2.5c.3.2.5.4.7.7.2.3.2.6.2 1 0 .8-.3 1.5-1 2-.8.4-1.7.7-2.8.7z"/><g class="st1"><path class="st0" d="M9.1 26.9l1.7 1.4 9.7-4.7.6-2.2z"/></g><path class="st2" d="M4.3 5.4h-.6c0-3 1.6-5.4 3.6-5.4v.6c-1.7 0-3 2.1-3 4.8z"/><path class="st2" d="M5.1 9.6c-.7-1-1.4-2-1.4-4.2h.6c0 2.1.6 2.9 1.2 3.8l.1.1-.5.3z"/><path class="st0" d="M0 1.5h113.1v1H0z"/><path class="st3" d="M37.7 9.4v12.9h-2.5V9.4h2.5zM48.3 22.2h-2.5v-.7c-.7.5-2.2.9-3.1.9-2.4 0-3.4-1.1-3.4-2.7s1.1-2.9 3.6-2.9c.6 0 2 .1 2.9.4v-.7c0-.7-.3-1.3-2-1.3-1 0-2.5.2-3.7.5l-.5-2c1.7-.5 3.3-.7 4.7-.7 2.9 0 4 1.3 4 3.4v5.8zM45.8 19c-.6-.1-1.6-.2-2.7-.2-.7 0-1.4.2-1.4.8 0 .6.6.8 1.3.8.7 0 1.9-.2 2.8-.5V19zM52.8 14.4c.9-.7 1.9-1.4 3.4-1.4v2.4c-1 0-2.6.5-3.4 1.1v5.8h-2.5v-9.1h2.5v1.2zM60 16.4h1.3l2.5-3.3h3l-3.4 4.2 3.6 4.8h-3l-2.7-3.8H60v3.8h-2.5V9.4H60v7zM31.1 18.8c-.3.9-1.1 1.6-2.3 1.6-1.7 0-2.5-1.2-2.5-2.7 0-1.4.8-2.7 2.5-2.7 1.2 0 2 .7 2.3 1.6l2.6-.2c-.5-1.9-2-3.4-4.9-3.4-3.5 0-5.1 2.2-5.1 4.7s1.6 4.7 5.1 4.7c2.9 0 4.5-1.5 4.9-3.4l-2.6-.2z"/><g><path class="st0" d="M11 28.5c-.4 0-.8-.1-1.1-.2-.8-.3-1.5-.9-1.9-1.7L3.3 16.3l2-9.3c.1-.6.6-1.1 1.2-1.4.6-.3 1.3-.3 1.9 0l8.3 4.5 4.8 10.3c.8 1.6 0 3.6-1.6 4.4l-7.4 3.4c-.5.2-1 .3-1.5.3zM4.2 16.2l4.6 10c.3.6.7 1 1.3 1.2.6.2 1.2.2 1.8-.1l7.4-3.4c1.2-.6 1.7-2 1.2-3.2l-4.7-10.1-8-4.3c-.3-.2-.7-.1-1.1 0-.2.3-.5.6-.6.9l-1.9 9z"/></g><g><path class="st0" d="M8.5 11.6c-.2 0-.4 0-.6-.1-.4-.2-.8-.5-.9-.9-.4-.8 0-1.8.8-2.2.8-.4 1.8 0 2.2.8.2.4.2.8.1 1.3s-.5.7-.9.9c-.3.1-.5.2-.7.2zm0-2.9c-.2 0-.3 0-.5.1-.6.3-.9 1-.6 1.6.1.3.3.5.6.6.3.1.6.1.9 0 .3-.1.5-.4.6-.7.1-.3.1-.6 0-.9-.2-.4-.6-.7-1-.7z"/></g><g><path transform="rotate(10.19 12.153 17.976)" class="st0" d="M11.8 13.3h.6v9.4h-.6z"/></g><g><path class="st0" d="M9.8 17.7c-.6 0-1.2-.3-1.5-.9-.2-.4-.2-.8-.1-1.2.1-.4.4-.7.8-.9.4-.2.8-.2 1.2 0 .4.1.7.4.9.8.4.8 0 1.8-.8 2.1 0 .1-.3.1-.5.1zm0-2.6c-.1 0-.3 0-.4.1-.2.1-.4.3-.5.6-.1.2-.1.5 0 .8.2.5.8.7 1.3.5.5-.2.7-.8.5-1.3-.1-.2-.3-.4-.6-.5-.1-.1-.2-.2-.3-.2z"/></g><g><path class="st0" d="M14.7 21c-.6 0-1.2-.3-1.5-.9-.4-.8 0-1.8.8-2.1.4-.2.8-.2 1.2-.1.4.1.7.4.9.8.2.4.2.8.1 1.2-.1.4-.4.7-.8.9-.3.2-.5.2-.7.2zm0-2.5c-.1 0-.3 0-.4.1-.5.2-.7.8-.5 1.3.2.5.8.7 1.3.5.2-.1.4-.3.5-.6.1-.2.1-.5 0-.8-.1-.2-.3-.4-.6-.5h-.3z"/></g><g><path class="st2" d="M7 10.6V10c1.6 0 3.3-1.9 3.3-4.6 0-2.6-1.3-4.8-3-4.8V0c2 0 3.6 2.4 3.6 5.4 0 2.8-1.8 5.2-3.9 5.2z"/></g><g><path class="st0" d="M7.9 11.5c-.4-.2-.8-.5-.9-.9-.2-.4-.2-.8-.1-1.3l.4.2c-.1.3-.1.6 0 .9.2.3.4.5.7.6l-.1.5z"/></g><g><path transform="rotate(66.003 15.008 24.139)" class="st0" d="M14.8 17.3h.5v13.6h-.5z"/></g></symbol><symbol id="icon-fanbuzz" viewBox="0 0 457.3 99"><style>.fb0{fill:#b82025}</style><path d="M220.5 85.1c-8.4 0-17.1-.7-22.3-1.4l9.3-66.7c5.2-.7 14.2-1.7 22.5-1.7 15.6 0 32.2 3.5 32.2 17.9 0 8.7-5.2 13.8-10.8 16.5 3.7.8 9.8 5 9.8 13.3 0 18.2-19.1 22.1-40.7 22.1zm17.9-23.9c0-4.7-5.2-5.4-8.9-5.4-.9 0-3.1.1-4 .2l-1.7 12c.6.1 3.3.1 4.2.1 4.2 0 10.4-1.3 10.4-6.9zm-11-18.3c.7.1 2.5.1 3.4.1 4 0 9-1.1 9-6.6 0-3.8-3.9-4.8-7.1-4.8-.9 0-3 .1-3.9.2l-1.4 11.1zM334.3 16.6l-5.7 40.7c-2.7 19.1-15.4 27.8-34.8 27.8s-29.6-8.8-27-27.8l5.7-40.7h24.7L291.6 57c-.7 4.8-.1 8.4 5.1 8.4 5.3 0 6.7-3.7 7.4-8.4l5.7-40.4h24.5z"/><path d="M395.1 16.6l-2.6 18.5-28.1 29.7H389l-2.7 19h-55.5l2.2-15.4 31.5-32.8h-36.3l2.7-19h64.2z"/><path d="M455.5 16.6l-2.6 18.5-28.1 29.7h24.6l-2.7 19h-55.5l2.2-15.4 31.5-32.8h-36.3l2.7-19h64.2z"/><path class="fb0" d="M33.4 35.7L32.2 44h22.5l-2.8 19.8H29.4l-2.8 20.1H2.2l9.4-67.2h50.1L59 35.8H33.4zM121.4 83.8H96.8l-1.3-11.2H76.6l-4.4 11.2H47.4l31.7-67.2h29.3l13 67.2zM82.8 56.9h10.7L91 36.2l-8.2 20.7zM200.5 16.6l-9.4 67.2h-23.3l-15.2-34.5-4.9 34.5h-22.6l9.4-67.2h24.6l14 34.3 4.8-34.3h22.6zM215.1 0H13.7l-.6 3.3h201.2z"/><path class="fb0" d="M457.3 0H211.2l-.5 3.3h246z"/><path d="M204.2 95.7H.5L0 99h203.4z"/><path d="M444.2 95.7h-246l-.6 3.3h246z"/></symbol><symbol id="icon-folder-search" viewBox="0 0 32 32"><path d="M16.309 20.016a4.5 4.5 0 1 1 .707-.707l5.348 5.348-.707.707-5.348-5.348zM16 9h11.994A2 2 0 0 1 30 10.995v14.01A1.994 1.994 0 0 1 28.007 27H2.994a1.996 1.996 0 0 1-1.993-1.991V6.991C1.001 5.89 1.898 5 3.004 5h10.997l2 4zm-.64 1L13.4 6H2.992A.999.999 0 0 0 2 6.992v18.016c0 .548.446.992.993.992h25.014A.995.995 0 0 0 29 24.999V11.001c0-.553-.454-1.001-1.003-1.001H15.36zM13.5 20a3.5 3.5 0 1 0 0-7 3.5 3.5 0 0 0 0 7z"/></symbol><symbol id="icon-help" viewBox="0 0 24 24"><path d="M12 2c5.514 0 10 4.486 10 10s-4.486 10-10 10S2 17.514 2 12 6.486 2 12 2zm0-2C5.373 0 0 5.373 0 12s5.373 12 12 12 12-5.373 12-12S18.627 0 12 0zm1.25 17a1.25 1.25 0 1 1-2.5 0 1.25 1.25 0 0 1 2.5 0zm1.393-9.998c-.608-.616-1.515-.955-2.551-.955-2.18 0-3.59 1.55-3.59 3.95h2.011c0-1.486.829-2.013 1.538-2.013.634 0 1.307.421 1.364 1.226.062.847-.39 1.277-.962 1.821-1.412 1.343-1.438 1.993-1.432 3.468h2.005c-.013-.664.03-1.203.935-2.178.677-.73 1.519-1.638 1.536-3.022.011-.924-.284-1.719-.854-2.297z"/></symbol><symbol id="icon-hottopics" viewBox="0 0 281.4 234.7"><style>.ht0{fill:#f39a35}.ht0,.ht1{opacity:.3}.ht2{opacity:.5}.ht2,.ht3{fill:#f39a35}</style><ellipse class="ht0" cx="146.7" cy="117.4" rx="102.6" ry="97"/><g class="ht1"><path class="ht2" d="M146.7 0C78.1 0 22.5 52.5 22.5 117.4s55.6 117.4 124.2 117.4 124.2-52.5 124.2-117.4S215.3 0 146.7 0zm0 224.1c-62.3 0-112.9-47.8-112.9-106.7S84.4 10.7 146.7 10.7s112.9 47.8 112.9 106.7-50.5 106.7-112.9 106.7z"/></g><path class="ht3" d="M64.9 66.4h10v15.8H106V66.4h10V108h-10V90.5H74.9V108h-10V66.4zM123.4 71.4c.4-1.3.9-2.3 1.8-3 .8-.8 1.9-1.3 3.3-1.5 1.4-.3 3-.4 5-.4h31.6c2 0 3.7.1 5 .4 1.4.3 2.4.8 3.3 1.5.8.8 1.4 1.8 1.8 3 .4 1.3.5 2.9.5 4.9v21.9c0 2-.2 3.6-.5 4.9-.4 1.3-1 2.3-1.8 3-.8.7-1.9 1.2-3.3 1.5-1.4.3-3 .4-5 .4h-31.6c-2 0-3.7-.1-5.1-.4-1.4-.3-2.5-.8-3.3-1.5-.8-.7-1.4-1.7-1.7-3-.4-1.3-.5-2.9-.5-4.9V76.3c0-2 .2-3.6.5-4.9zm42.4 28.6V74h-32.9v26h32.9zM210.1 108h-10V73.9h-19.7v-7.5h49.5v7.5h-19.8V108z"/><g><path class="ht3" d="M29 157.9h-9.7V120H0v-7.3h48.4v7.3H29v37.9zM52.2 122.9c.3-1.2.9-2.2 1.7-3 .8-.7 1.9-1.2 3.2-1.5 1.3-.3 3-.4 4.9-.4h30.9c2 0 3.6.1 4.9.4 1.3.3 2.4.8 3.2 1.5.8.7 1.4 1.7 1.7 3 .3 1.2.5 2.8.5 4.8v21.4c0 1.9-.2 3.5-.5 4.8-.3 1.2-.9 2.2-1.7 2.9-.8.7-1.9 1.2-3.2 1.5-1.3.3-3 .4-4.9.4H62c-2 0-3.6-.1-5-.4-1.4-.3-2.4-.8-3.2-1.5-.8-.7-1.4-1.7-1.7-2.9-.3-1.2-.5-2.8-.5-4.8v-21.4c.1-2 .2-3.6.6-4.8zm41.4 28v-25.4H61.4v25.4h32.2zM112.6 118h36c3.2 0 5.6.6 7.1 1.8 1.5 1.2 2.3 3.2 2.3 6.1v9c0 2.9-.8 4.9-2.3 6.1-1.5 1.2-3.9 1.8-7.1 1.8h-26.4v15.9h-9.6V118zm9.6 7v10.8h22.2c1.4 0 2.5-.2 3.3-.6.8-.4 1.1-1.3 1.1-2.6v-4.2c0-1.3-.4-2.2-1.1-2.6-.8-.4-1.9-.6-3.3-.6h-22.2zM164.8 118h9.7v40.7h-9.7V118zM193 125.5v25.4h26.3v-8.7l9.8 2v4.8c0 1.9-.2 3.5-.5 4.7-.3 1.2-.9 2.2-1.7 2.9-.8.7-1.9 1.2-3.2 1.5-1.3.3-3 .4-5 .4h-24.9c-2 0-3.7-.1-5-.4-1.3-.3-2.4-.8-3.2-1.5-.8-.7-1.4-1.7-1.7-3-.3-1.2-.5-2.8-.5-4.7v-21.4c0-1.9.2-3.5.5-4.7.3-1.2.9-2.2 1.7-2.9.8-.7 1.9-1.2 3.2-1.5 1.4-.3 3-.4 5-.4h24.9c2 0 3.7.1 5 .4 1.3.3 2.4.8 3.2 1.5.8.7 1.4 1.7 1.7 2.9.3 1.2.5 2.8.5 4.8v3.9l-9.8 1.4v-7.5H193zM245.1 125.3v8.6h26c2 0 3.7.1 5 .4 1.3.3 2.4.8 3.2 1.5.8.7 1.4 1.7 1.7 2.9.3 1.2.5 2.8.5 4.8v5.6c0 1.9-.2 3.5-.5 4.7-.3 1.2-.9 2.2-1.7 2.9-.8.7-1.8 1.2-3.2 1.5-1.3.3-3 .4-5 .4h-26c-2 0-3.6-.1-5-.4-1.4-.3-2.4-.8-3.3-1.5-.8-.7-1.4-1.7-1.7-2.9-.3-1.2-.5-2.8-.5-4.7V148l8.8-1.6v4.8h29.3v-9.4h-25.9c-2 0-3.6-.1-5-.4-1.4-.3-2.4-.8-3.3-1.5-.8-.7-1.4-1.7-1.7-2.9-.3-1.2-.5-2.8-.5-4.8v-4.5c0-1.9.2-3.5.5-4.8.3-1.2.9-2.2 1.7-2.9.8-.7 1.9-1.2 3.3-1.5 1.4-.3 3-.4 5-.4h23.7c1.8 0 3.4.1 4.7.4 1.3.3 2.4.7 3.3 1.4.8.7 1.5 1.6 1.9 2.7.4 1.1.6 2.6.6 4.4v1l-8.4 1.8v-4.3h-27.5z"/></g></symbol><symbol id="icon-rare" viewBox="0 0 612.7 200.4"><style>.r0{fill:#be1e2d}</style><path class="r0" d="M78.2 141.9H1.1v-34h11.5V34H1.1V0h77.1c6.9 0 13.4.1 19.3.4 5.9.2 11 .6 15.2 1 4.2.4 8.1 1 11.6 1.8 9.9 2.1 18 6.7 24.2 13.8 6.2 7.2 9.4 15.7 9.4 25.5 0 7.3-1.9 14-5.7 20-3.8 5.9-8.8 10.3-15 13.1l19.6 32.4H167v34h-51.1l-31-58.1H67.5v24h10.7v34zM67.5 31.1v27h6.1c8 0 13.5-.2 16.3-.7 3.1-.5 5.6-1.8 7.7-4.1 2.1-2.1 3.2-5 3.2-8.7s-1.1-6.6-3.2-8.8c-2.1-2.2-4.8-3.6-8.1-4.1-3.1-.5-8.8-.7-17.1-.7h-4.9zM220.4 70.6l-40.2-4.1c4.4-9.7 11.6-16.6 21.4-20.5 9.7-3.9 24.1-5.9 43-5.9 7 0 13.3.2 18.8.7 5.5.4 10.5 1.1 14.8 2 9 1.7 15.7 4.3 20.1 7.9 4.4 3.6 7.4 7.5 9.1 11.6 1.8 4.3 2.6 10.9 2.6 20v28.6h12.6V142h-63.9v-6.7c-8.8 5.7-20.7 8.6-35.5 8.6-13.9 0-24.4-3.1-31.5-9.2-7.1-6.1-10.7-13.4-10.7-21.7 0-9.2 4.4-16.8 13.2-22.7 8.7-5.9 20.1-8.9 34.1-8.9 12.8 0 22.9 1.7 30.5 5v-3c0-6.1-.4-10.4-1.3-12.9-1-2.6-3.1-4.8-6.3-6.6-3.4-1.8-7.3-2.7-11.8-2.7-8.2-.1-14.5 3.1-19 9.4m38.5 46V98.5c-4.6-2.4-9.4-3.7-14.5-3.7-4.5 0-8.1 1.2-10.7 3.7-2.7 2.5-4 5.7-4 9.6 0 4 1.4 7.3 4.1 9.8 2.8 2.6 6 3.9 9.6 3.9 6.4 0 11.5-1.8 15.5-5.2M417.4 141.9h-79.7v-31.1h13.5V74h-13.5V42.9H399v24.8c2.3-6.2 5.9-11.5 10.7-16 4.6-4.4 9.3-7.3 14.1-8.7 4.6-1.3 11.3-1.9 20.1-1.9v43.6c-1.2-.1-2.6-.1-4.3-.1-10.5 0-18.3 1.1-23.4 3.2-5.3 2.2-8.9 5-10.8 8.6-2 3.7-3 8.5-3.1 14.5h15v31zM536.9 110.6l42.3 5.2c-1.9 4.4-4.6 8.4-8 11.9-3.4 3.5-7.5 6.5-12.4 9.1-9.9 5.3-21.7 8-35.4 8-23 0-40.4-4.8-52-14.4-11.6-9.5-17.4-22-17.4-37.4 0-15.1 5.7-27.7 17.2-37.7 11.4-10.1 26.8-15.1 46.2-15.1 18.7 0 33.9 4.8 45.7 14.3 11.6 9.5 17.7 23.8 18.5 43.1h-77.9c.2 16 6.2 24.1 17.9 24.1 7.1-.1 12.2-3.8 15.3-11.1m-32.6-25.9h28.9c.1-2 .2-3.2.2-3.5 0-5.4-1.4-9.8-4.1-13.4-2.7-3.5-6.3-5.2-10.8-5.2-4.6 0-8.2 1.9-10.6 5.7-2.5 3.9-3.7 8.6-3.7 14.3 0 .8 0 1.4.1 2.1M578 32.9v-3.7h15.2v3.7h-5.4v11.8h-4.4V32.9H578zm17 11.7V29.2h6.8l2.1 8.4 2.3-8.4h6.6v15.5h-4.2v-11l-2.9 10.9h-3.5l-2.9-10.9v10.9H595z"/><g><path class="r0" d="M20.1 200.1l-2.2-5.2h-10l-2.2 5.2H0l10.3-23.9h5.2l10.3 23.9h-5.7zm-7.2-16.8l-3 6.9h6l-3-6.9zM59.5 185.1L53 198.2h-3.2l-6.4-13.1v15h-5.3v-23.9h7.2l6.2 13.1 6.2-13.1h7.2v23.9h-5.3v-15zM97.5 176.2v4.8H85.6v4.9h10.7v4.5H85.6v5h12.3v4.7H80.3v-23.9h17.2zM131.6 184.1c0 3.8-1.5 6.3-4.5 7.4l6 8.5h-6.6l-5.3-7.6h-3.7v7.6h-5.3v-23.9h9.1c3.7 0 6.4.6 7.9 1.9 1.6 1.3 2.4 3.4 2.4 6.1zm-6.4 2.9c.7-.6 1-1.5 1-2.8s-.3-2.2-1-2.6-1.9-.7-3.6-.7h-4v7.1h3.9c1.8-.1 3-.4 3.7-1zM146.7 176.2h5.3v23.9h-5.3v-23.9zM178.4 195.4c2.6 0 4.8-1 6.4-3.1l3.4 3.5c-2.7 3.1-5.9 4.6-9.6 4.6-3.7 0-6.7-1.2-9.1-3.5s-3.6-5.3-3.6-8.8c0-3.5 1.2-6.5 3.6-8.9 2.4-2.4 5.4-3.6 8.9-3.6 3.9 0 7.2 1.5 9.8 4.5l-3.3 3.8c-1.7-2.1-3.8-3.1-6.3-3.1-2 0-3.7.7-5.1 2-1.4 1.3-2.1 3.1-2.1 5.3s.7 4 2 5.3c1.5 1.3 3.1 2 5 2zM218.9 200.1l-2.2-5.2h-10l-2.2 5.2h-5.7l10.3-23.9h5.2l10.3 23.9h-5.7zm-7.2-16.8l-3 6.9h6l-3-6.9zM234.8 181.2c-.8-.5-1.1-1.2-1.1-2.1 0-.9.3-1.6.8-2.1s1.2-.8 2-.8 1.5.3 2 .8.8 1.2.8 1.9c0 .8-.3 1.6-.8 2.4l-2.5 3.6h-2.8l1.6-3.7zM258.6 181c-.5.4-.8 1-.8 1.7s.3 1.2.9 1.7c.6.4 2.1.9 4.3 1.5 2.3.6 4 1.4 5.3 2.5s1.9 2.7 1.9 4.9c0 2.1-.8 3.9-2.4 5.2-1.6 1.3-3.7 2-6.3 2-3.8 0-7.2-1.4-10.2-4.2l3.2-3.9c2.6 2.3 5 3.4 7.1 3.4 1 0 1.7-.2 2.3-.6.6-.4.8-1 .8-1.7s-.3-1.3-.9-1.7c-.6-.4-1.8-.8-3.5-1.3-2.8-.7-4.8-1.5-6.1-2.6s-1.9-2.7-1.9-5 .8-4 2.4-5.2c1.6-1.2 3.7-1.8 6.1-1.8 1.6 0 3.2.3 4.8.8 1.6.5 3 1.3 4.2 2.3l-2.7 3.9c-2.1-1.6-4.2-2.4-6.4-2.4-.9-.2-1.6 0-2.1.5zM319.7 176.2h5.3v23.9h-5.3l-11.4-15v15H303v-23.9h5l11.7 15.4v-15.4zM357.7 176.2v4.8h-11.9v4.9h10.7v4.5h-10.7v5h12.3v4.7h-17.6v-23.9h17.2zM379.9 189.9l4.2-13.7h5.6l4.2 13.7 4.8-13.7h5.8l-8.3 23.9h-4l-5.2-16.6-5.2 16.6h-4l-8.3-23.9h5.8l4.6 13.7zM422.2 181c-.5.4-.8 1-.8 1.7s.3 1.2.9 1.7c.6.4 2.1.9 4.3 1.5 2.3.6 4 1.4 5.3 2.5s1.9 2.7 1.9 4.9c0 2.1-.8 3.9-2.4 5.2-1.6 1.3-3.7 2-6.3 2-3.8 0-7.2-1.4-10.2-4.2l3.2-3.9c2.6 2.3 5 3.4 7.1 3.4 1 0 1.7-.2 2.3-.6.6-.4.8-1 .8-1.7s-.3-1.3-.9-1.7c-.6-.4-1.8-.8-3.5-1.3-2.8-.7-4.8-1.5-6.1-2.6s-1.9-2.7-1.9-5 .8-4 2.4-5.2c1.6-1.2 3.7-1.8 6.1-1.8 1.6 0 3.2.3 4.8.8 1.6.5 3 1.3 4.2 2.3l-2.7 3.9c-2.1-1.6-4.2-2.4-6.4-2.4-.8-.2-1.5 0-2.1.5zM483 176.2v4.7h-11v5.2h10.5v4.7H472v9.4h-5.3v-23.9H483zM514.3 176.2v4.8h-11.9v4.9h10.7v4.5h-10.7v5h12.3v4.7h-17.6v-23.9h17.2zM546.3 176.2v4.8h-11.9v4.9h10.7v4.5h-10.7v5h12.3v4.7H529v-23.9h17.3zM579.2 179.3c2.3 2.1 3.4 5 3.4 8.7s-1.1 6.7-3.3 8.8c-2.2 2.2-5.6 3.2-10.2 3.2h-8.2v-23.9h8.4c4.4.1 7.6 1.1 9.9 3.2zm-3.9 14.2c1.3-1.2 2-3 2-5.4s-.7-4.2-2-5.4c-1.3-1.3-3.3-1.9-6-1.9h-3v14.5h3.4c2.4.1 4.3-.5 5.6-1.8z"/></g></symbol><symbol id="icon-rarecountry" viewBox="0 0 401.33 163.63"><title>RareCountry_Logo_Small</title><path class="cls-1" d="M103.64 336.5a4.3 4.3 0 0 0-4.3 4.3v4.2a4.3 4.3 0 0 0 4.3 4.3h392.72a4.3 4.3 0 0 0 4.3-4.3v-4.2a4.3 4.3 0 0 0-4.3-4.3zm394.3 10.08H102.07v-7.35h395.86zM196.77 235.19h-4.91v-11h8L214 250.77h23.44v-15.58h-4.64l-9-14.88a15.76 15.76 0 0 0 6.88-6 16.73 16.73 0 0 0 2.62-9.17 17.28 17.28 0 0 0-4.3-11.7 19.75 19.75 0 0 0-11.09-6.32 52.59 52.59 0 0 0-5.34-.82q-2.89-.3-7-.47t-8.84-.16H161.4v15.58h5.29v33.92h-5.29v15.58h35.37zM191.86 200h2.3a62 62 0 0 1 7.86.33 6.1 6.1 0 0 1 3.69 1.87 5.53 5.53 0 0 1 1.45 4 5.37 5.37 0 0 1-1.45 4 6 6 0 0 1-3.55 1.87 54.57 54.57 0 0 1-7.49.33h-2.81zM270.73 213.71a11.62 11.62 0 0 1 5.43 1.22 6 6 0 0 1 2.9 3 19.51 19.51 0 0 1 .61 5.89v1.36q-5.19-2.29-14-2.29-9.64 0-15.63 4.07t-6 10.43a12.75 12.75 0 0 0 4.91 10q4.87 4.21 14.45 4.21 10.21 0 16.28-3.93v3.09H309V236.5h-5.8v-13.1q0-6.22-1.21-9.17a13.9 13.9 0 0 0-4.17-5.33q-3-2.43-9.22-3.6a57.62 57.62 0 0 0-6.81-.91q-3.81-.3-8.63-.3-13.06 0-19.75 2.71a17.63 17.63 0 0 0-9.82 9.4l18.41 1.86a10 10 0 0 1 8.73-4.35zm8.94 25.45a10.38 10.38 0 0 1-7.11 2.39 6.28 6.28 0 0 1-4.4-1.78 6.27 6.27 0 0 1 0-8.89 7 7 0 0 1 4.84-1.68 13.84 13.84 0 0 1 6.64 1.68zM352.37 236.5h-6.87a14.38 14.38 0 0 1 1.41-6.64 9.35 9.35 0 0 1 5-3.93q3.51-1.45 10.71-1.45h2v-20a36.05 36.05 0 0 0-9.22.89 15.78 15.78 0 0 0-6.45 4 18.9 18.9 0 0 0-4.91 7.35v-11.34h-28.25v14.27H322v16.85h-6.17v14.27h36.58zM377.17 245.48q8 6.6 23.86 6.6a33.84 33.84 0 0 0 16.24-3.65 22.52 22.52 0 0 0 5.71-4.19 17.89 17.89 0 0 0 3.65-5.45l-19.41-2.38q-2.15 5.05-7 5.05-8.09 0-8.23-11h35.71q-.52-13.29-8.47-19.79t-21-6.55q-13.38 0-21.19 6.92a22.06 22.06 0 0 0-7.91 17.31 21.13 21.13 0 0 0 8.04 17.13zm16.7-28.48a5.44 5.44 0 0 1 4.86-2.62 6 6 0 0 1 5 2.39 9.76 9.76 0 0 1 1.87 6.13c0 .12 0 .65-.09 1.59h-13.28a9 9 0 0 1 0-.93 12 12 0 0 1 1.64-6.56z" transform="translate(-99.33 -185.69)"/><path class="cls-1" d="M329.17 20.48h2.04v-5.41h2.48v-1.68h-6.97v1.68h2.45v5.41zM336.46 15.46l1.31 5.02h1.62l1.33-5.02v5.02h1.91v-7.09h-3.01l-1.03 3.87-.98-3.87h-3.11v7.09h1.96v-5.02z"/><path class="cls-1" d="M103.79 250.63h49.31c1.19 0 2-.25 2-1.43s-.83-1.3-2-1.3H103v-6.35h50.1c1.19 0 2.15-.22 2.15-1.4s-1-1.33-2.15-1.33h-49.31a3.79 3.79 0 0 0-3.79 3.78v4.25a3.79 3.79 0 0 0 3.78 3.78zM494.18 238.81H437c-1.19 0-2 .25-2 1.43s.83 1.3 2 1.3h58v6.35h-62.7c-1.19 0-2.15.22-2.15 1.4s1 1.33 2.15 1.33h61.88a3.79 3.79 0 0 0 3.78-3.78v-4.24a3.79 3.79 0 0 0-3.78-3.78zM130.4 266.52a32.39 32.39 0 0 1 6.55.61 27.31 27.31 0 0 1 5.42 1.71 24.48 24.48 0 0 1 4.62 2.65 40.45 40.45 0 0 1 4.09 3.45l-4.08 4.38a33.5 33.5 0 0 0-7.31-5.23 20.46 20.46 0 0 0-24 4.24 21.41 21.41 0 0 0-4.32 6.93 23.22 23.22 0 0 0-1.55 8.52v.15a23.43 23.43 0 0 0 1.55 8.6 21.42 21.42 0 0 0 4.32 6.93 20.38 20.38 0 0 0 6.52 4.66 19.46 19.46 0 0 0 8.14 1.7 20.47 20.47 0 0 0 9.39-2 32.74 32.74 0 0 0 7.73-5.65l3.94 3.86a37.77 37.77 0 0 1-4.28 3.83 26.53 26.53 0 0 1-4.81 2.92 27.31 27.31 0 0 1-5.53 1.89 29.31 29.31 0 0 1-6.59.68 26.09 26.09 0 0 1-19-7.92 26.48 26.48 0 0 1-5.57-8.68 28.39 28.39 0 0 1-2-10.68v-.15a28.19 28.19 0 0 1 2-10.61 27.37 27.37 0 0 1 5.57-8.75 25.9 25.9 0 0 1 8.49-5.91 26.5 26.5 0 0 1 10.76-2.16m0-3a29.59 29.59 0 0 0-12 2.41 29 29 0 0 0-9.45 6.59 30.46 30.46 0 0 0-6.17 9.7 31.28 31.28 0 0 0-2.22 11.72v.15a31.49 31.49 0 0 0 2.22 11.8 29.57 29.57 0 0 0 6.19 9.64 29.08 29.08 0 0 0 21.16 8.83 32.43 32.43 0 0 0 7.26-.76 30.43 30.43 0 0 0 6.13-2.1 29.63 29.63 0 0 0 5.35-3.24 40.94 40.94 0 0 0 4.62-4.13 3 3 0 0 0-.06-4.2l-3.94-3.86a3 3 0 0 0-4.16 0 29.93 29.93 0 0 1-7 5.14 17.64 17.64 0 0 1-8 1.68 16.59 16.59 0 0 1-6.91-1.44 17.5 17.5 0 0 1-5.57-4 18.55 18.55 0 0 1-3.72-6 20.58 20.58 0 0 1-1.35-7.51v-.15a20.36 20.36 0 0 1 1.35-7.44 18.55 18.55 0 0 1 3.72-6 18 18 0 0 1 20.45-3.64 30.66 30.66 0 0 1 6.65 4.82 3 3 0 0 0 2 .8h.1a3 3 0 0 0 2.08-.95l4.09-4.39a3 3 0 0 0-.12-4.19 43.63 43.63 0 0 0-4.39-3.7 27.59 27.59 0 0 0-5.18-3 30.42 30.42 0 0 0-6-1.89 35.52 35.52 0 0 0-7.16-.67zM186.62 266.52a27 27 0 0 1 11 2.2 26.1 26.1 0 0 1 14 14.66 28.47 28.47 0 0 1 1.93 10.42.1.1 0 0 1 0 .15 28.27 28.27 0 0 1-2 10.46 27.5 27.5 0 0 1-36.18 14.78 26.11 26.11 0 0 1-14-14.66 28.46 28.46 0 0 1-1.93-10.42v-.15a28.25 28.25 0 0 1 2-10.46 26.55 26.55 0 0 1 25.15-17m0 49.32a20.35 20.35 0 0 0 8.37-1.7 19.75 19.75 0 0 0 6.55-4.66 21.89 21.89 0 0 0 4.28-6.9 22.94 22.94 0 0 0 1.55-8.49v-.15a23.24 23.24 0 0 0-1.55-8.52 20.88 20.88 0 0 0-11-11.63 20 20 0 0 0-8.37-1.74 20.33 20.33 0 0 0-8.37 1.71 19.73 19.73 0 0 0-6.55 4.66 21.88 21.88 0 0 0-4.28 6.89 22.93 22.93 0 0 0-1.55 8.49v.15a23.22 23.22 0 0 0 1.55 8.52 20.87 20.87 0 0 0 11 11.63 19.94 19.94 0 0 0 8.37 1.74m0-52.31a29.45 29.45 0 0 0-27.93 18.86 31.35 31.35 0 0 0-2.18 11.55v.15a31.56 31.56 0 0 0 2.14 11.5 29.09 29.09 0 0 0 15.59 16.31 31.59 31.59 0 0 0 24.51 0 29.34 29.34 0 0 0 15.65-16.37 31.35 31.35 0 0 0 2.18-11.13 3.06 3.06 0 0 0 0-1 31.53 31.53 0 0 0-2.13-11.08 29.08 29.08 0 0 0-15.57-16.3 30 30 0 0 0-12.23-2.45zm0 49.32a17.07 17.07 0 0 1-7.13-1.47 17.89 17.89 0 0 1-9.44-10 20.36 20.36 0 0 1-1.35-7.44v-.15a20.07 20.07 0 0 1 1.33-7.37 19 19 0 0 1 3.7-6 16.86 16.86 0 0 1 5.58-4 17.46 17.46 0 0 1 7.16-1.45 17.1 17.1 0 0 1 7.14 1.47 17.89 17.89 0 0 1 9.44 10 20.38 20.38 0 0 1 1.35 7.44v.15a20.07 20.07 0 0 1-1.35 7.39 19 19 0 0 1-3.7 6 16.88 16.88 0 0 1-5.58 4 17.48 17.48 0 0 1-7.16 1.45zM269.58 267.43v30.38A30 30 0 0 1 268 308a20 20 0 0 1-4.51 7.35 18.62 18.62 0 0 1-7 4.43 28.25 28.25 0 0 1-18 0 18.82 18.82 0 0 1-7-4.39 19.67 19.67 0 0 1-4.51-7.24 28.61 28.61 0 0 1-1.59-9.92v-30.8h6v30.46q0 8.64 4.28 13.26t11.93 4.62q7.35 0 11.67-4.39t4.32-13.11v-30.84h6m0-3h-6a3 3 0 0 0-3 3v30.84c0 5-1.16 8.68-3.46 11s-5.44 3.5-9.54 3.5c-4.27 0-7.46-1.2-9.74-3.67s-3.49-6.27-3.49-11.23v-30.44a3 3 0 0 0-3-3h-6a3 3 0 0 0-3 3v30.84a31.7 31.7 0 0 0 1.77 11 22.72 22.72 0 0 0 5.2 8.32 21.86 21.86 0 0 0 8.06 5.09 31.22 31.22 0 0 0 20.08 0 21.66 21.66 0 0 0 8.07-5.14 23 23 0 0 0 5.19-8.43 33.09 33.09 0 0 0 1.77-11.24v-30.44a3 3 0 0 0-3-3zM328.6 267.43v53h-4.77L289.59 277v43.49h-5.83v-53h5.61l33.41 42.5v-42.5h5.83m0-3h-5.83a3 3 0 0 0-3 3v33.88l-28.08-35.79a3 3 0 0 0-2.35-1.14h-5.61a3 3 0 0 0-3 3v53a3 3 0 0 0 3 3h5.83a3 3 0 0 0 3-3v-34.85l28.92 36.72a3 3 0 0 0 2.34 1.14h4.77a3 3 0 0 0 3-3v-53a3 3 0 0 0-3-3zM381.41 267.43V273h-17.8v47.5h-6V273h-17.79v-5.53h41.6m0-3h-41.6a3 3 0 0 0-3 3V273a3 3 0 0 0 3 3h14.82v44.52a3 3 0 0 0 3 3h6a3 3 0 0 0 3-3v-44.58h14.82a3 3 0 0 0 3-3v-5.53a3 3 0 0 0-3-3zM415.51 267.43a25.35 25.35 0 0 1 8.75 1.4 17.13 17.13 0 0 1 6.33 3.9 13.64 13.64 0 0 1 3 4.62 15.59 15.59 0 0 1 1.06 5.83v.15a15.72 15.72 0 0 1-1.06 5.95 13.58 13.58 0 0 1-3 4.55A16.17 16.17 0 0 1 426 297a22.17 22.17 0 0 1-5.76 1.78l16.29 21.67h-7.35l-15.38-20.61h-15.11v20.61h-6v-53h22.81m-16.82 27H415a18.82 18.82 0 0 0 5.47-.76 13.36 13.36 0 0 0 4.33-2.16 9.7 9.7 0 0 0 3.87-8v-.15a9.18 9.18 0 0 0-3.57-7.69q-3.57-2.76-10-2.77h-16.41v21.52m16.82-30H392.7a3 3 0 0 0-3 3v53a3 3 0 0 0 3 3h6a3 3 0 0 0 3-3v-17.6h10.67l14.48 19.41a3 3 0 0 0 2.39 1.2h7.35a3 3 0 0 0 2.39-4.78l-13.63-18.13q1-.37 2-.83a19.22 19.22 0 0 0 5.42-3.77 16.61 16.61 0 0 0 3.65-5.53 18.75 18.75 0 0 0 1.28-7.07v-.15a18.63 18.63 0 0 0-1.27-6.94 16.68 16.68 0 0 0-3.69-5.62 20.16 20.16 0 0 0-7.41-4.59 28.43 28.43 0 0 0-9.78-1.58zm-13.84 11.5h13.42c3.61 0 6.37.72 8.2 2.14a6.22 6.22 0 0 1 2.41 5.33v.15a6.72 6.72 0 0 1-2.71 5.63 10.46 10.46 0 0 1-3.37 1.67 16 16 0 0 1-4.61.63h-13.34v-15.55zM492.11 267.43l-22 32v21.06h-6v-21l-22-32h7.27l17.84 26.52 18-26.52h7m0-3h-7a3 3 0 0 0-2.47 1.31l-15.52 22.86-15.38-22.85a3 3 0 0 0-2.48-1.32H442a3 3 0 0 0-2.46 4.68l21.52 31.28v20.06a3 3 0 0 0 3 3h6a3 3 0 0 0 3-3v-20.18l21.47-31.13a3 3 0 0 0-2.4-4.76zm0 6z" transform="translate(-99.33 -185.69)"/></symbol></svg>